<svg width="600" height="600" viewBox="0 0 600 600" fill="none" xmlns="http://www.w3.org/2000/svg">
<path d="M299.796 103.428C210.324 145.968 289.824 217.956 237.912 258.684C186 299.412 47.268 255.504 98.808 358.284C159.36 479.016 433.068 457.74 494.4 307.476C555.732 157.212 389.256 60.888 299.796 103.428Z" fill="#CA2D2D"/>
<path opacity="0.9" d="M299.796 103.428C210.324 145.968 289.824 217.956 237.912 258.684C186 299.412 47.268 255.504 98.808 358.284C159.36 479.016 433.068 457.74 494.4 307.476C555.732 157.212 389.256 60.888 299.796 103.428Z" fill="white"/>
<path d="M300 513.072C428.499 513.072 532.668 506.99 532.668 499.488C532.668 491.986 428.499 485.904 300 485.904C171.501 485.904 67.332 491.986 67.332 499.488C67.332 506.99 171.501 513.072 300 513.072Z" fill="#F5F5F5"/>
<path d="M391.116 111.612H355.32C353.816 111.612 352.596 112.832 352.596 114.336V150.132C352.596 151.636 353.816 152.856 355.32 152.856H391.116C392.62 152.856 393.84 151.636 393.84 150.132V114.336C393.84 112.832 392.62 111.612 391.116 111.612Z" fill="#CA2D2D"/>
<g opacity="0.4">
<path opacity="0.4" d="M391.116 111.612H355.32C353.816 111.612 352.596 112.832 352.596 114.336V150.132C352.596 151.636 353.816 152.856 355.32 152.856H391.116C392.62 152.856 393.84 151.636 393.84 150.132V114.336C393.84 112.832 392.62 111.612 391.116 111.612Z" fill="white"/>
</g>
<path d="M367.68 130.056L360.48 132.684L367.68 135.288V138L357.456 134.1V131.316L367.68 127.416V130.056Z" fill="white"/>
<path d="M375.384 122.112H378.372L371.268 142.356H368.28L375.384 122.112Z" fill="white"/>
<path d="M388.98 131.292V134.076L378.756 138V135.312L385.956 132.708L378.756 130.08V127.416L388.98 131.292Z" fill="white"/>
<path d="M361.68 160.392V170.4H359.364V166.284H354.804V170.4H352.488V160.38H354.804V164.4H359.364V160.452L361.68 160.392Z" fill="#263238"/>
<path d="M366.144 162.276H362.928V160.392H371.664V162.276H368.46V170.4H366.144V162.276Z" fill="#263238"/>
<path d="M382.044 170.4V164.4L379.092 169.356H378L375.06 164.556V170.4H372.888V160.38H374.808L378.552 166.608L382.248 160.38H384.156V170.4H382.044Z" fill="#263238"/>
<path d="M386.604 160.392H388.92V168.516H393.948V170.4H386.604V160.392Z" fill="#263238"/>
<g opacity="0.6">
<path opacity="0.6" d="M361.68 160.392V170.4H359.364V166.284H354.804V170.4H352.488V160.38H354.804V164.4H359.364V160.452L361.68 160.392Z" fill="white"/>
<path opacity="0.6" d="M366.144 162.276H362.928V160.392H371.664V162.276H368.46V170.4H366.144V162.276Z" fill="white"/>
<path opacity="0.6" d="M382.044 170.4V164.4L379.092 169.356H378L375.06 164.556V170.4H372.888V160.38H374.808L378.552 166.608L382.248 160.38H384.156V170.4H382.044Z" fill="white"/>
<path opacity="0.6" d="M386.604 160.392H388.92V168.516H393.948V170.4H386.604V160.392Z" fill="white"/>
</g>
<path d="M479.328 133.596H443.532C442.028 133.596 440.808 134.816 440.808 136.32V172.116C440.808 173.62 442.028 174.84 443.532 174.84H479.328C480.833 174.84 482.052 173.62 482.052 172.116V136.32C482.052 134.816 480.833 133.596 479.328 133.596Z" fill="#CA2D2D"/>
<g opacity="0.4">
<path opacity="0.4" d="M479.328 133.596H443.532C442.028 133.596 440.808 134.816 440.808 136.32V172.116C440.808 173.62 442.028 174.84 443.532 174.84H479.328C480.833 174.84 482.052 173.62 482.052 172.116V136.32C482.052 134.816 480.833 133.596 479.328 133.596Z" fill="white"/>
</g>
<path d="M454.668 154.212C455.652 154.512 456.108 155.136 456.108 156.612V160.056C456.081 160.269 456.103 160.486 456.172 160.69C456.242 160.893 456.356 161.079 456.508 161.231C456.659 161.384 456.844 161.5 457.047 161.571C457.25 161.642 457.466 161.665 457.68 161.64H458.064V164.268H456.864C454.176 164.268 452.808 162.888 452.808 160.416V156.528C452.826 156.397 452.815 156.263 452.775 156.136C452.735 156.01 452.666 155.894 452.575 155.797C452.485 155.7 452.373 155.625 452.249 155.577C452.125 155.529 451.992 155.51 451.86 155.52H451.152V152.892H451.86C451.992 152.902 452.125 152.883 452.249 152.835C452.373 152.787 452.485 152.712 452.575 152.615C452.666 152.518 452.735 152.402 452.775 152.276C452.815 152.149 452.826 152.015 452.808 151.884V147.996C452.808 145.524 454.176 144.144 456.864 144.144H458.064V146.772H457.68C457.466 146.747 457.25 146.77 457.047 146.841C456.844 146.912 456.659 147.028 456.508 147.181C456.356 147.333 456.242 147.519 456.172 147.722C456.103 147.926 456.081 148.143 456.108 148.356V151.8C456.108 153.288 455.652 153.912 454.668 154.212Z" fill="white"/>
<path d="M471.756 152.904V155.532H471.048C470.916 155.522 470.783 155.541 470.659 155.589C470.535 155.637 470.424 155.712 470.333 155.809C470.242 155.906 470.174 156.022 470.133 156.148C470.093 156.275 470.082 156.409 470.1 156.54V160.428C470.1 162.9 468.72 164.28 466.044 164.28H464.844V161.652H465.228C465.442 161.677 465.658 161.654 465.861 161.583C466.064 161.512 466.249 161.396 466.4 161.243C466.552 161.091 466.667 160.905 466.736 160.702C466.805 160.498 466.827 160.281 466.8 160.068V156.624C466.8 155.136 467.244 154.512 468.24 154.224C467.244 153.924 466.8 153.3 466.8 151.824V148.38C466.827 148.167 466.805 147.95 466.736 147.746C466.667 147.543 466.552 147.357 466.4 147.205C466.249 147.052 466.064 146.936 465.861 146.865C465.658 146.794 465.442 146.771 465.228 146.796H464.844V144.168H466.044C468.72 144.168 470.1 145.548 470.1 148.02V151.908C470.082 152.039 470.093 152.173 470.133 152.3C470.174 152.426 470.242 152.542 470.333 152.639C470.424 152.736 470.535 152.811 470.659 152.859C470.783 152.907 470.916 152.926 471.048 152.916L471.756 152.904Z" fill="white"/>
<path d="M447.6 187.536C447.659 186.449 448.039 185.403 448.691 184.531C449.343 183.659 450.239 182.999 451.265 182.635C452.291 182.271 453.402 182.218 454.458 182.484C455.515 182.749 456.468 183.322 457.2 184.128L455.712 185.508C455.409 185.132 455.025 184.828 454.589 184.62C454.153 184.413 453.675 184.306 453.192 184.308C452.754 184.281 452.315 184.344 451.902 184.494C451.49 184.643 451.112 184.875 450.792 185.176C450.473 185.476 450.218 185.839 450.044 186.242C449.87 186.645 449.78 187.079 449.78 187.518C449.78 187.957 449.87 188.391 450.044 188.794C450.218 189.197 450.473 189.56 450.792 189.86C451.112 190.161 451.49 190.393 451.902 190.542C452.315 190.692 452.754 190.755 453.192 190.728C453.675 190.729 454.152 190.622 454.589 190.414C455.025 190.207 455.409 189.904 455.712 189.528L457.2 190.896C456.472 191.708 455.519 192.285 454.462 192.554C453.405 192.824 452.292 192.774 451.264 192.41C450.236 192.046 449.339 191.385 448.686 190.511C448.034 189.637 447.656 188.589 447.6 187.5V187.536Z" fill="#263238"/>
<path d="M457.824 191.568L458.604 189.816C459.581 190.483 460.733 190.846 461.916 190.86C463.284 190.86 463.848 190.404 463.848 189.792C463.848 187.908 458.016 189.204 458.016 185.484C458.016 183.78 459.396 182.352 462.24 182.352C463.459 182.332 464.66 182.638 465.72 183.24L465.012 185.004C464.166 184.509 463.208 184.24 462.228 184.224C460.86 184.224 460.32 184.728 460.32 185.364C460.32 187.212 466.152 185.94 466.152 189.612C466.152 191.292 464.76 192.72 461.904 192.72C460.459 192.754 459.038 192.353 457.824 191.568Z" fill="#263238"/>
<path d="M466.956 191.568L467.748 189.816C468.722 190.488 469.876 190.852 471.06 190.86C472.428 190.86 472.992 190.404 472.992 189.792C472.992 187.908 467.16 189.204 467.16 185.484C467.16 183.78 468.54 182.352 471.384 182.352C472.602 182.333 473.804 182.64 474.864 183.24L474.144 185.004C473.303 184.508 472.348 184.239 471.372 184.224C469.992 184.224 469.464 184.728 469.464 185.364C469.464 187.212 475.296 185.94 475.296 189.612C475.296 191.292 473.904 192.72 471.036 192.72C469.591 192.754 468.17 192.353 466.956 191.568Z" fill="#263238"/>
<g opacity="0.6">
<path opacity="0.6" d="M447.6 187.536C447.659 186.449 448.039 185.403 448.691 184.531C449.343 183.659 450.239 182.999 451.265 182.635C452.291 182.271 453.402 182.218 454.458 182.484C455.515 182.749 456.468 183.322 457.2 184.128L455.712 185.508C455.409 185.132 455.025 184.828 454.589 184.62C454.153 184.413 453.675 184.306 453.192 184.308C452.754 184.281 452.315 184.344 451.902 184.494C451.49 184.643 451.112 184.875 450.792 185.176C450.473 185.476 450.218 185.839 450.044 186.242C449.87 186.645 449.78 187.079 449.78 187.518C449.78 187.957 449.87 188.391 450.044 188.794C450.218 189.197 450.473 189.56 450.792 189.86C451.112 190.161 451.49 190.393 451.902 190.542C452.315 190.692 452.754 190.755 453.192 190.728C453.675 190.729 454.152 190.622 454.589 190.414C455.025 190.207 455.409 189.904 455.712 189.528L457.2 190.896C456.472 191.708 455.519 192.285 454.462 192.554C453.405 192.824 452.292 192.774 451.264 192.41C450.236 192.046 449.339 191.385 448.686 190.511C448.034 189.637 447.656 188.589 447.6 187.5V187.536Z" fill="white"/>
<path opacity="0.6" d="M457.824 191.568L458.604 189.816C459.581 190.483 460.733 190.846 461.916 190.86C463.284 190.86 463.848 190.404 463.848 189.792C463.848 187.908 458.016 189.204 458.016 185.484C458.016 183.78 459.396 182.352 462.24 182.352C463.459 182.332 464.66 182.638 465.72 183.24L465.012 185.004C464.166 184.509 463.208 184.24 462.228 184.224C460.86 184.224 460.32 184.728 460.32 185.364C460.32 187.212 466.152 185.94 466.152 189.612C466.152 191.292 464.76 192.72 461.904 192.72C460.459 192.754 459.038 192.353 457.824 191.568Z" fill="white"/>
<path opacity="0.6" d="M466.956 191.568L467.748 189.816C468.722 190.488 469.876 190.852 471.06 190.86C472.428 190.86 472.992 190.404 472.992 189.792C472.992 187.908 467.16 189.204 467.16 185.484C467.16 183.78 468.54 182.352 471.384 182.352C472.602 182.333 473.804 182.64 474.864 183.24L474.144 185.004C473.303 184.508 472.348 184.239 471.372 184.224C469.992 184.224 469.464 184.728 469.464 185.364C469.464 187.212 475.296 185.94 475.296 189.612C475.296 191.292 473.904 192.72 471.036 192.72C469.591 192.754 468.17 192.353 466.956 191.568Z" fill="white"/>
</g>
<path d="M325.272 129.576H178.26V235.992H325.272V129.576Z" fill="black"/>
<path opacity="0.9" d="M325.272 129.576H178.26V235.992H325.272V129.576Z" fill="white"/>
<path opacity="0.1" d="M198.732 129.576H178.26V235.992H198.732V129.576Z" fill="black"/>
<path d="M325.272 129.576H178.26V139.524H325.272V129.576Z" fill="#CA2D2D"/>
<g opacity="0.2">
<path opacity="0.2" d="M237.252 154.536H210.48C210.162 154.536 209.857 154.41 209.632 154.185C209.406 153.959 209.28 153.654 209.28 153.336C209.28 153.018 209.406 152.713 209.632 152.487C209.857 152.262 210.162 152.136 210.48 152.136H237.252C237.57 152.136 237.876 152.262 238.101 152.487C238.326 152.713 238.452 153.018 238.452 153.336C238.452 153.654 238.326 153.959 238.101 154.185C237.876 154.41 237.57 154.536 237.252 154.536Z" fill="black"/>
<path opacity="0.2" d="M296.4 154.536H244.38C244.062 154.536 243.757 154.41 243.532 154.185C243.306 153.959 243.18 153.654 243.18 153.336C243.18 153.018 243.306 152.713 243.532 152.487C243.757 152.262 244.062 152.136 244.38 152.136H296.4C296.718 152.136 297.024 152.262 297.249 152.487C297.474 152.713 297.6 153.018 297.6 153.336C297.6 153.654 297.474 153.959 297.249 154.185C297.024 154.41 296.718 154.536 296.4 154.536Z" fill="black"/>
<path opacity="0.2" d="M284.016 162.372H214.08C213.762 162.372 213.457 162.246 213.231 162.021C213.006 161.795 212.88 161.49 212.88 161.172C212.88 160.854 213.006 160.549 213.231 160.323C213.457 160.098 213.762 159.972 214.08 159.972H284.016C284.334 159.972 284.639 160.098 284.865 160.323C285.09 160.549 285.216 160.854 285.216 161.172C285.216 161.49 285.09 161.795 284.865 162.021C284.639 162.246 284.334 162.372 284.016 162.372Z" fill="black"/>
<path opacity="0.2" d="M255.528 170.196H210.48C210.162 170.196 209.857 170.07 209.632 169.845C209.406 169.619 209.28 169.314 209.28 168.996C209.28 168.678 209.406 168.373 209.632 168.147C209.857 167.922 210.162 167.796 210.48 167.796H255.528C255.846 167.796 256.152 167.922 256.377 168.147C256.602 168.373 256.728 168.678 256.728 168.996C256.728 169.314 256.602 169.619 256.377 169.845C256.152 170.07 255.846 170.196 255.528 170.196Z" fill="black"/>
<path opacity="0.2" d="M296.4 170.196H264.12C263.802 170.196 263.497 170.07 263.272 169.845C263.046 169.619 262.92 169.314 262.92 168.996C262.92 168.678 263.046 168.373 263.272 168.147C263.497 167.922 263.802 167.796 264.12 167.796H296.4C296.718 167.796 297.024 167.922 297.249 168.147C297.474 168.373 297.6 168.678 297.6 168.996C297.6 169.314 297.474 169.619 297.249 169.845C297.024 170.07 296.718 170.196 296.4 170.196Z" fill="black"/>
<path opacity="0.2" d="M235.356 178.032H210.48C210.162 178.032 209.857 177.906 209.632 177.681C209.406 177.455 209.28 177.15 209.28 176.832C209.28 176.514 209.406 176.209 209.632 175.983C209.857 175.758 210.162 175.632 210.48 175.632H235.356C235.674 175.632 235.98 175.758 236.205 175.983C236.43 176.209 236.556 176.514 236.556 176.832C236.556 177.15 236.43 177.455 236.205 177.681C235.98 177.906 235.674 178.032 235.356 178.032Z" fill="black"/>
<path opacity="0.2" d="M282.588 178.032H243.42C243.102 178.032 242.797 177.906 242.572 177.681C242.347 177.455 242.22 177.15 242.22 176.832C242.22 176.514 242.347 176.209 242.572 175.983C242.797 175.758 243.102 175.632 243.42 175.632H282.588C282.906 175.632 283.212 175.758 283.437 175.983C283.662 176.209 283.788 176.514 283.788 176.832C283.788 177.15 283.662 177.455 283.437 177.681C283.212 177.906 282.906 178.032 282.588 178.032Z" fill="black"/>
<path opacity="0.2" d="M247.548 185.868H214.08C213.762 185.868 213.457 185.742 213.231 185.517C213.006 185.291 212.88 184.986 212.88 184.668C212.88 184.35 213.006 184.045 213.231 183.819C213.457 183.594 213.762 183.468 214.08 183.468H247.548C247.866 183.468 248.171 183.594 248.397 183.819C248.622 184.045 248.748 184.35 248.748 184.668C248.748 184.986 248.622 185.291 248.397 185.517C248.171 185.742 247.866 185.868 247.548 185.868Z" fill="black"/>
<path opacity="0.2" d="M251.736 193.704H214.08C213.762 193.704 213.457 193.578 213.231 193.353C213.006 193.127 212.88 192.822 212.88 192.504C212.88 192.186 213.006 191.881 213.231 191.655C213.457 191.43 213.762 191.304 214.08 191.304H251.736C252.054 191.304 252.359 191.43 252.585 191.655C252.81 191.881 252.936 192.186 252.936 192.504C252.936 192.822 252.81 193.127 252.585 193.353C252.359 193.578 252.054 193.704 251.736 193.704Z" fill="black"/>
<path opacity="0.2" d="M296.4 193.704H258C257.682 193.704 257.377 193.578 257.152 193.353C256.926 193.127 256.8 192.822 256.8 192.504C256.8 192.186 256.926 191.881 257.152 191.655C257.377 191.43 257.682 191.304 258 191.304H296.4C296.718 191.304 297.024 191.43 297.249 191.655C297.474 191.881 297.6 192.186 297.6 192.504C297.6 192.822 297.474 193.127 297.249 193.353C297.024 193.578 296.718 193.704 296.4 193.704Z" fill="black"/>
<path opacity="0.2" d="M232.032 201.528H210.432C210.114 201.528 209.809 201.402 209.584 201.177C209.358 200.951 209.232 200.646 209.232 200.328C209.232 200.01 209.358 199.705 209.584 199.479C209.809 199.254 210.114 199.128 210.432 199.128H232.032C232.35 199.128 232.656 199.254 232.881 199.479C233.106 199.705 233.232 200.01 233.232 200.328C233.232 200.646 233.106 200.951 232.881 201.177C232.656 201.402 232.35 201.528 232.032 201.528Z" fill="black"/>
<path opacity="0.2" d="M296.4 201.528H239.388C239.07 201.528 238.765 201.402 238.54 201.177C238.315 200.951 238.188 200.646 238.188 200.328C238.188 200.01 238.315 199.705 238.54 199.479C238.765 199.254 239.07 199.128 239.388 199.128H296.4C296.718 199.128 297.024 199.254 297.249 199.479C297.474 199.705 297.6 200.01 297.6 200.328C297.6 200.646 297.474 200.951 297.249 201.177C297.024 201.402 296.718 201.528 296.4 201.528Z" fill="black"/>
<path opacity="0.2" d="M251.496 209.364H214.08C213.762 209.364 213.457 209.238 213.231 209.013C213.006 208.787 212.88 208.482 212.88 208.164C212.88 207.846 213.006 207.541 213.231 207.315C213.457 207.09 213.762 206.964 214.08 206.964H251.496C251.814 206.964 252.12 207.09 252.345 207.315C252.57 207.541 252.696 207.846 252.696 208.164C252.696 208.482 252.57 208.787 252.345 209.013C252.12 209.238 251.814 209.364 251.496 209.364Z" fill="black"/>
<path opacity="0.2" d="M280.932 209.364H256.716C256.398 209.364 256.093 209.238 255.867 209.013C255.642 208.787 255.516 208.482 255.516 208.164C255.516 207.846 255.642 207.541 255.867 207.315C256.093 207.09 256.398 206.964 256.716 206.964H280.932C281.25 206.964 281.555 207.09 281.781 207.315C282.006 207.541 282.132 207.846 282.132 208.164C282.132 208.482 282.006 208.787 281.781 209.013C281.555 209.238 281.25 209.364 280.932 209.364Z" fill="black"/>
<path opacity="0.2" d="M257.148 217.2H214.08C213.762 217.2 213.457 217.074 213.231 216.849C213.006 216.623 212.88 216.318 212.88 216C212.88 215.682 213.006 215.377 213.231 215.151C213.457 214.926 213.762 214.8 214.08 214.8H257.148C257.466 214.8 257.771 214.926 257.997 215.151C258.222 215.377 258.348 215.682 258.348 216C258.348 216.318 258.222 216.623 257.997 216.849C257.771 217.074 257.466 217.2 257.148 217.2Z" fill="black"/>
</g>
<path opacity="0.4" d="M318.948 136.668C320.081 136.668 321 135.749 321 134.616C321 133.483 320.081 132.564 318.948 132.564C317.815 132.564 316.896 133.483 316.896 134.616C316.896 135.749 317.815 136.668 318.948 136.668Z" fill="white"/>
<path opacity="0.4" d="M311.736 136.668C312.869 136.668 313.788 135.749 313.788 134.616C313.788 133.483 312.869 132.564 311.736 132.564C310.603 132.564 309.684 133.483 309.684 134.616C309.684 135.749 310.603 136.668 311.736 136.668Z" fill="white"/>
<path opacity="0.4" d="M304.536 136.668C305.669 136.668 306.588 135.749 306.588 134.616C306.588 133.483 305.669 132.564 304.536 132.564C303.403 132.564 302.484 133.483 302.484 134.616C302.484 135.749 303.403 136.668 304.536 136.668Z" fill="white"/>
<g opacity="0.2">
<path opacity="0.2" d="M188.856 154.536C188.538 154.536 188.233 154.41 188.007 154.185C187.782 153.959 187.656 153.654 187.656 153.336C187.656 153.018 187.782 152.713 188.007 152.487C188.233 152.262 188.538 152.136 188.856 152.136C189.174 152.136 189.479 152.262 189.705 152.487C189.93 152.713 190.056 153.018 190.056 153.336C190.056 153.654 189.93 153.959 189.705 154.185C189.479 154.41 189.174 154.536 188.856 154.536Z" fill="black"/>
<path opacity="0.2" d="M188.856 162.372C188.538 162.372 188.233 162.246 188.007 162.021C187.782 161.795 187.656 161.49 187.656 161.172C187.656 160.854 187.782 160.549 188.007 160.323C188.233 160.098 188.538 159.972 188.856 159.972C189.174 159.972 189.479 160.098 189.705 160.323C189.93 160.549 190.056 160.854 190.056 161.172C190.056 161.49 189.93 161.795 189.705 162.021C189.479 162.246 189.174 162.372 188.856 162.372Z" fill="black"/>
<path opacity="0.2" d="M188.856 170.196C188.538 170.196 188.233 170.07 188.007 169.845C187.782 169.619 187.656 169.314 187.656 168.996C187.656 168.678 187.782 168.373 188.007 168.147C188.233 167.922 188.538 167.796 188.856 167.796C189.174 167.796 189.479 167.922 189.705 168.147C189.93 168.373 190.056 168.678 190.056 168.996C190.056 169.314 189.93 169.619 189.705 169.845C189.479 170.07 189.174 170.196 188.856 170.196Z" fill="black"/>
<path opacity="0.2" d="M188.856 178.032C188.538 178.032 188.233 177.906 188.007 177.681C187.782 177.455 187.656 177.15 187.656 176.832C187.656 176.514 187.782 176.209 188.007 175.983C188.233 175.758 188.538 175.632 188.856 175.632C189.174 175.632 189.479 175.758 189.705 175.983C189.93 176.209 190.056 176.514 190.056 176.832C190.056 177.15 189.93 177.455 189.705 177.681C189.479 177.906 189.174 178.032 188.856 178.032Z" fill="black"/>
<path opacity="0.2" d="M188.856 185.868C188.538 185.868 188.233 185.742 188.007 185.517C187.782 185.291 187.656 184.986 187.656 184.668C187.656 184.35 187.782 184.045 188.007 183.819C188.233 183.594 188.538 183.468 188.856 183.468C189.174 183.468 189.479 183.594 189.705 183.819C189.93 184.045 190.056 184.35 190.056 184.668C190.056 184.986 189.93 185.291 189.705 185.517C189.479 185.742 189.174 185.868 188.856 185.868Z" fill="black"/>
<path opacity="0.2" d="M188.856 193.704C188.538 193.704 188.233 193.578 188.007 193.353C187.782 193.127 187.656 192.822 187.656 192.504C187.656 192.186 187.782 191.881 188.007 191.655C188.233 191.43 188.538 191.304 188.856 191.304C189.174 191.304 189.479 191.43 189.705 191.655C189.93 191.881 190.056 192.186 190.056 192.504C190.056 192.822 189.93 193.127 189.705 193.353C189.479 193.578 189.174 193.704 188.856 193.704Z" fill="black"/>
<path opacity="0.2" d="M188.856 201.528C188.538 201.528 188.233 201.402 188.007 201.177C187.782 200.951 187.656 200.646 187.656 200.328C187.656 200.01 187.782 199.705 188.007 199.479C188.233 199.254 188.538 199.128 188.856 199.128C189.174 199.128 189.479 199.254 189.705 199.479C189.93 199.705 190.056 200.01 190.056 200.328C190.056 200.646 189.93 200.951 189.705 201.177C189.479 201.402 189.174 201.528 188.856 201.528Z" fill="black"/>
<path opacity="0.2" d="M188.856 209.364C188.538 209.364 188.233 209.238 188.007 209.013C187.782 208.787 187.656 208.482 187.656 208.164C187.656 207.846 187.782 207.541 188.007 207.315C188.233 207.09 188.538 206.964 188.856 206.964C189.174 206.964 189.479 207.09 189.705 207.315C189.93 207.541 190.056 207.846 190.056 208.164C190.056 208.482 189.93 208.787 189.705 209.013C189.479 209.238 189.174 209.364 188.856 209.364Z" fill="black"/>
<path opacity="0.2" d="M188.856 217.2C188.538 217.2 188.233 217.074 188.007 216.849C187.782 216.623 187.656 216.318 187.656 216C187.656 215.682 187.782 215.377 188.007 215.151C188.233 214.926 188.538 214.8 188.856 214.8C189.174 214.8 189.479 214.926 189.705 215.151C189.93 215.377 190.056 215.682 190.056 216C190.056 216.318 189.93 216.623 189.705 216.849C189.479 217.074 189.174 217.2 188.856 217.2Z" fill="black"/>
</g>
<path d="M458.424 216.408H265.788V339.756H458.424V216.408Z" fill="#263238"/>
<path opacity="0.9" d="M458.424 216.408H265.788V339.756H458.424V216.408Z" fill="white"/>
<path opacity="0.1" d="M295.836 216.408H265.788V339.756H295.836V216.408Z" fill="black"/>
<path d="M458.424 216.408H265.788V226.356H458.424V216.408Z" fill="#CA2D2D"/>
<path d="M279.396 237.264L276.204 238.464L279.396 239.664V240.864L274.836 239.124V237.924L279.396 236.196V237.264Z" fill="white"/>
<path d="M282.84 233.712H284.172L281.004 242.748H279.672L282.84 233.712Z" fill="white"/>
<path d="M288.912 237.804V239.004L284.352 240.744V239.544L287.544 238.344L284.352 237.144V235.944L288.912 237.804Z" fill="white"/>
<g opacity="0.2">
<path opacity="0.2" d="M288.24 250.98H275.184C274.866 250.98 274.56 250.854 274.335 250.629C274.11 250.403 273.984 250.098 273.984 249.78C273.984 249.462 274.11 249.157 274.335 248.931C274.56 248.706 274.866 248.58 275.184 248.58H288.24C288.558 248.58 288.863 248.706 289.088 248.931C289.313 249.157 289.44 249.462 289.44 249.78C289.44 250.098 289.313 250.403 289.088 250.629C288.863 250.854 288.558 250.98 288.24 250.98Z" fill="black"/>
<path opacity="0.2" d="M288.24 258.804H275.184C274.866 258.804 274.56 258.678 274.335 258.453C274.11 258.227 273.984 257.922 273.984 257.604C273.984 257.286 274.11 256.981 274.335 256.755C274.56 256.53 274.866 256.404 275.184 256.404H288.24C288.558 256.404 288.863 256.53 289.088 256.755C289.313 256.981 289.44 257.286 289.44 257.604C289.44 257.922 289.313 258.227 289.088 258.453C288.863 258.678 288.558 258.804 288.24 258.804Z" fill="black"/>
<path opacity="0.2" d="M288.24 266.64H275.184C274.866 266.64 274.56 266.514 274.335 266.289C274.11 266.063 273.984 265.758 273.984 265.44C273.984 265.122 274.11 264.817 274.335 264.591C274.56 264.366 274.866 264.24 275.184 264.24H288.24C288.558 264.24 288.863 264.366 289.088 264.591C289.313 264.817 289.44 265.122 289.44 265.44C289.44 265.758 289.313 266.063 289.088 266.289C288.863 266.514 288.558 266.64 288.24 266.64Z" fill="black"/>
<path opacity="0.2" d="M288.24 274.476H275.184C274.866 274.476 274.56 274.35 274.335 274.125C274.11 273.899 273.984 273.594 273.984 273.276C273.984 272.958 274.11 272.653 274.335 272.427C274.56 272.202 274.866 272.076 275.184 272.076H288.24C288.558 272.076 288.863 272.202 289.088 272.427C289.313 272.653 289.44 272.958 289.44 273.276C289.44 273.594 289.313 273.899 289.088 274.125C288.863 274.35 288.558 274.476 288.24 274.476Z" fill="black"/>
<path opacity="0.2" d="M288.24 282.312H275.184C274.866 282.312 274.56 282.186 274.335 281.961C274.11 281.735 273.984 281.43 273.984 281.112C273.984 280.794 274.11 280.489 274.335 280.263C274.56 280.038 274.866 279.912 275.184 279.912H288.24C288.558 279.912 288.863 280.038 289.088 280.263C289.313 280.489 289.44 280.794 289.44 281.112C289.44 281.43 289.313 281.735 289.088 281.961C288.863 282.186 288.558 282.312 288.24 282.312Z" fill="black"/>
<path opacity="0.2" d="M288.24 290.136H275.184C274.866 290.136 274.56 290.01 274.335 289.785C274.11 289.559 273.984 289.254 273.984 288.936C273.984 288.618 274.11 288.313 274.335 288.087C274.56 287.862 274.866 287.736 275.184 287.736H288.24C288.558 287.736 288.863 287.862 289.088 288.087C289.313 288.313 289.44 288.618 289.44 288.936C289.44 289.254 289.313 289.559 289.088 289.785C288.863 290.01 288.558 290.136 288.24 290.136Z" fill="black"/>
<path opacity="0.2" d="M288.24 297.972H275.184C274.866 297.972 274.56 297.846 274.335 297.621C274.11 297.395 273.984 297.09 273.984 296.772C273.984 296.454 274.11 296.149 274.335 295.923C274.56 295.698 274.866 295.572 275.184 295.572H288.24C288.558 295.572 288.863 295.698 289.088 295.923C289.313 296.149 289.44 296.454 289.44 296.772C289.44 297.09 289.313 297.395 289.088 297.621C288.863 297.846 288.558 297.972 288.24 297.972Z" fill="black"/>
<path opacity="0.2" d="M288.24 305.808H275.184C274.866 305.808 274.56 305.682 274.335 305.457C274.11 305.231 273.984 304.926 273.984 304.608C273.984 304.29 274.11 303.985 274.335 303.759C274.56 303.534 274.866 303.408 275.184 303.408H288.24C288.558 303.408 288.863 303.534 289.088 303.759C289.313 303.985 289.44 304.29 289.44 304.608C289.44 304.926 289.313 305.231 289.088 305.457C288.863 305.682 288.558 305.808 288.24 305.808Z" fill="black"/>
<path opacity="0.2" d="M288.24 313.644H275.184C274.866 313.644 274.56 313.518 274.335 313.293C274.11 313.067 273.984 312.762 273.984 312.444C273.984 312.126 274.11 311.821 274.335 311.595C274.56 311.37 274.866 311.244 275.184 311.244H288.24C288.558 311.244 288.863 311.37 289.088 311.595C289.313 311.821 289.44 312.126 289.44 312.444C289.44 312.762 289.313 313.067 289.088 313.293C288.863 313.518 288.558 313.644 288.24 313.644Z" fill="black"/>
</g>
<path d="M325.98 250.98H299.208C298.89 250.98 298.585 250.854 298.36 250.629C298.134 250.403 298.008 250.098 298.008 249.78C298.008 249.462 298.134 249.157 298.36 248.931C298.585 248.706 298.89 248.58 299.208 248.58H325.98C326.298 248.58 326.604 248.706 326.829 248.931C327.054 249.157 327.18 249.462 327.18 249.78C327.18 250.098 327.054 250.403 326.829 250.629C326.604 250.854 326.298 250.98 325.98 250.98Z" fill="#CA2D2D"/>
<path d="M402.888 250.98H333.108C332.79 250.98 332.484 250.854 332.259 250.629C332.034 250.403 331.908 250.098 331.908 249.78C331.908 249.462 332.034 249.157 332.259 248.931C332.484 248.706 332.79 248.58 333.108 248.58H402.888C403.206 248.58 403.511 248.706 403.737 248.931C403.962 249.157 404.088 249.462 404.088 249.78C404.088 250.098 403.962 250.403 403.737 250.629C403.511 250.854 403.206 250.98 402.888 250.98Z" fill="#263238"/>
<g opacity="0.2">
<path opacity="0.2" d="M434.736 250.98H414.516C414.198 250.98 413.892 250.854 413.667 250.629C413.442 250.403 413.316 250.098 413.316 249.78C413.316 249.462 413.442 249.157 413.667 248.931C413.892 248.706 414.198 248.58 414.516 248.58H434.736C435.054 248.58 435.359 248.706 435.584 248.931C435.81 249.157 435.936 249.462 435.936 249.78C435.936 250.098 435.81 250.403 435.584 250.629C435.359 250.854 435.054 250.98 434.736 250.98Z" fill="#263238"/>
</g>
<g opacity="0.2">
<path opacity="0.2" d="M372.744 258.804H302.808C302.49 258.804 302.184 258.678 301.959 258.453C301.734 258.227 301.608 257.922 301.608 257.604C301.608 257.286 301.734 256.981 301.959 256.755C302.184 256.53 302.49 256.404 302.808 256.404H372.744C373.062 256.404 373.367 256.53 373.592 256.755C373.818 256.981 373.944 257.286 373.944 257.604C373.944 257.922 373.818 258.227 373.592 258.453C373.367 258.678 373.062 258.804 372.744 258.804Z" fill="#263238"/>
</g>
<path d="M444.336 258.804H379.2C378.882 258.804 378.577 258.678 378.351 258.453C378.126 258.227 378 257.922 378 257.604C378 257.286 378.126 256.981 378.351 256.755C378.577 256.53 378.882 256.404 379.2 256.404H444.384C444.702 256.404 445.007 256.53 445.233 256.755C445.458 256.981 445.584 257.286 445.584 257.604C445.584 257.922 445.458 258.227 445.233 258.453C445.007 258.678 444.702 258.804 444.384 258.804H444.336Z" fill="#CA2D2D"/>
<path d="M344.256 266.64H302.808C302.49 266.64 302.184 266.514 301.959 266.289C301.734 266.063 301.608 265.758 301.608 265.44C301.608 265.122 301.734 264.817 301.959 264.591C302.184 264.366 302.49 264.24 302.808 264.24H344.256C344.574 264.24 344.879 264.366 345.104 264.591C345.329 264.817 345.456 265.122 345.456 265.44C345.456 265.758 345.329 266.063 345.104 266.289C344.879 266.514 344.574 266.64 344.256 266.64Z" fill="#263238"/>
<path d="M393.6 266.64H352.8C352.482 266.64 352.177 266.514 351.952 266.289C351.727 266.063 351.6 265.758 351.6 265.44C351.6 265.122 351.727 264.817 351.952 264.591C352.177 264.366 352.482 264.24 352.8 264.24H393.6C393.918 264.24 394.224 264.366 394.449 264.591C394.674 264.817 394.8 265.122 394.8 265.44C394.8 265.758 394.674 266.063 394.449 266.289C394.224 266.514 393.918 266.64 393.6 266.64Z" fill="#CA2D2D"/>
<path d="M444.336 266.64H400.272C399.954 266.64 399.649 266.514 399.424 266.289C399.198 266.063 399.072 265.758 399.072 265.44C399.072 265.122 399.198 264.817 399.424 264.591C399.649 264.366 399.954 264.24 400.272 264.24H444.336C444.654 264.24 444.96 264.366 445.185 264.591C445.41 264.817 445.536 265.122 445.536 265.44C445.536 265.758 445.41 266.063 445.185 266.289C444.96 266.514 444.654 266.64 444.336 266.64Z" fill="#263238"/>
<path d="M348.096 274.476H323.22C322.902 274.476 322.597 274.35 322.371 274.125C322.146 273.899 322.02 273.594 322.02 273.276C322.02 272.958 322.146 272.653 322.371 272.427C322.597 272.202 322.902 272.076 323.22 272.076H348.096C348.414 272.076 348.719 272.202 348.945 272.427C349.17 272.653 349.296 272.958 349.296 273.276C349.296 273.594 349.17 273.899 348.945 274.125C348.719 274.35 348.414 274.476 348.096 274.476Z" fill="#263238"/>
<path d="M383.328 274.476H356.172C355.854 274.476 355.548 274.35 355.323 274.125C355.098 273.899 354.972 273.594 354.972 273.276C354.972 272.958 355.098 272.653 355.323 272.427C355.548 272.202 355.854 272.076 356.172 272.076H383.328C383.646 272.076 383.951 272.202 384.176 272.427C384.401 272.653 384.528 272.958 384.528 273.276C384.528 273.594 384.401 273.899 384.176 274.125C383.951 274.35 383.646 274.476 383.328 274.476Z" fill="#263238"/>
<g opacity="0.2">
<path opacity="0.2" d="M433.536 274.476H389.496C389.178 274.476 388.872 274.35 388.647 274.125C388.422 273.899 388.296 273.594 388.296 273.276C388.296 272.958 388.422 272.653 388.647 272.427C388.872 272.202 389.178 272.076 389.496 272.076H433.536C433.854 272.076 434.159 272.202 434.384 272.427C434.61 272.653 434.736 272.958 434.736 273.276C434.736 273.594 434.61 273.899 434.384 274.125C434.159 274.35 433.854 274.476 433.536 274.476Z" fill="#263238"/>
</g>
<g opacity="0.2">
<path opacity="0.2" d="M336.276 282.312H302.808C302.49 282.312 302.184 282.186 301.959 281.961C301.734 281.735 301.608 281.43 301.608 281.112C301.608 280.794 301.734 280.489 301.959 280.263C302.184 280.038 302.49 279.912 302.808 279.912H336.276C336.594 279.912 336.899 280.038 337.124 280.263C337.349 280.489 337.476 280.794 337.476 281.112C337.476 281.43 337.349 281.735 337.124 281.961C336.899 282.186 336.594 282.312 336.276 282.312Z" fill="#263238"/>
</g>
<path d="M340.464 290.136H302.808C302.49 290.136 302.184 290.01 301.959 289.785C301.734 289.559 301.608 289.254 301.608 288.936C301.608 288.618 301.734 288.313 301.959 288.087C302.184 287.862 302.49 287.736 302.808 287.736H340.464C340.782 287.736 341.087 287.862 341.312 288.087C341.537 288.313 341.664 288.618 341.664 288.936C341.664 289.254 341.537 289.559 341.312 289.785C341.087 290.01 340.782 290.136 340.464 290.136Z" fill="#CA2D2D"/>
<path d="M403.368 290.136H346.632C346.314 290.136 346.008 290.01 345.783 289.785C345.558 289.559 345.432 289.254 345.432 288.936C345.432 288.618 345.558 288.313 345.783 288.087C346.008 287.862 346.314 287.736 346.632 287.736H403.368C403.686 287.736 403.991 287.862 404.216 288.087C404.441 288.313 404.568 288.618 404.568 288.936C404.568 289.254 404.441 289.559 404.216 289.785C403.991 290.01 403.686 290.136 403.368 290.136Z" fill="#263238"/>
<path d="M444.336 290.136H410.244C409.926 290.136 409.62 290.01 409.395 289.785C409.17 289.559 409.044 289.254 409.044 288.936C409.044 288.618 409.17 288.313 409.395 288.087C409.62 287.862 409.926 287.736 410.244 287.736H444.336C444.654 287.736 444.959 287.862 445.184 288.087C445.41 288.313 445.536 288.618 445.536 288.936C445.536 289.254 445.41 289.559 445.184 289.785C444.959 290.01 444.654 290.136 444.336 290.136Z" fill="#263238"/>
<g opacity="0.2">
<path opacity="0.2" d="M336.372 297.972H314.772C314.454 297.972 314.149 297.846 313.924 297.621C313.698 297.395 313.572 297.09 313.572 296.772C313.572 296.454 313.698 296.149 313.924 295.923C314.149 295.698 314.454 295.572 314.772 295.572H336.372C336.69 295.572 336.996 295.698 337.221 295.923C337.446 296.149 337.572 296.454 337.572 296.772C337.572 297.09 337.446 297.395 337.221 297.621C336.996 297.846 336.69 297.972 336.372 297.972Z" fill="#263238"/>
</g>
<g opacity="0.2">
<path opacity="0.2" d="M385.08 297.972H343.728C343.41 297.972 343.105 297.846 342.88 297.621C342.654 297.395 342.528 297.09 342.528 296.772C342.528 296.454 342.654 296.149 342.88 295.923C343.105 295.698 343.41 295.572 343.728 295.572H385.08C385.398 295.572 385.704 295.698 385.929 295.923C386.154 296.149 386.28 296.454 386.28 296.772C386.28 297.09 386.154 297.395 385.929 297.621C385.704 297.846 385.398 297.972 385.08 297.972Z" fill="#263238"/>
</g>
<path d="M433.536 297.972H393.156C392.838 297.972 392.533 297.846 392.308 297.621C392.082 297.395 391.956 297.09 391.956 296.772C391.956 296.454 392.082 296.149 392.308 295.923C392.533 295.698 392.838 295.572 393.156 295.572H433.536C433.854 295.572 434.16 295.698 434.385 295.923C434.61 296.149 434.736 296.454 434.736 296.772C434.736 297.09 434.61 297.395 434.385 297.621C434.16 297.846 433.854 297.972 433.536 297.972Z" fill="#263238"/>
<path d="M352.236 305.808H326.82C326.502 305.808 326.197 305.682 325.972 305.457C325.747 305.231 325.62 304.926 325.62 304.608C325.62 304.29 325.747 303.985 325.972 303.759C326.197 303.534 326.502 303.408 326.82 303.408H352.236C352.554 303.408 352.86 303.534 353.085 303.759C353.31 303.985 353.436 304.29 353.436 304.608C353.436 304.926 353.31 305.231 353.085 305.457C352.86 305.682 352.554 305.808 352.236 305.808Z" fill="#263238"/>
<g opacity="0.2">
<path opacity="0.2" d="M381.66 305.808H357.456C357.138 305.808 356.833 305.682 356.608 305.457C356.383 305.231 356.256 304.926 356.256 304.608C356.256 304.29 356.383 303.985 356.608 303.759C356.833 303.534 357.138 303.408 357.456 303.408H381.66C381.978 303.408 382.284 303.534 382.509 303.759C382.734 303.985 382.86 304.29 382.86 304.608C382.86 304.926 382.734 305.231 382.509 305.457C382.284 305.682 381.978 305.808 381.66 305.808Z" fill="#263238"/>
</g>
<path d="M433.536 305.808H389.256C388.938 305.808 388.632 305.682 388.407 305.457C388.182 305.231 388.056 304.926 388.056 304.608C388.056 304.29 388.182 303.985 388.407 303.759C388.632 303.534 388.938 303.408 389.256 303.408H433.536C433.854 303.408 434.159 303.534 434.384 303.759C434.609 303.985 434.736 304.29 434.736 304.608C434.736 304.926 434.609 305.231 434.384 305.457C434.159 305.682 433.854 305.808 433.536 305.808Z" fill="#CA2D2D"/>
<g opacity="0.2">
<path opacity="0.2" d="M357.888 313.644H326.82C326.502 313.644 326.197 313.518 325.972 313.293C325.747 313.067 325.62 312.762 325.62 312.444C325.62 312.126 325.747 311.821 325.972 311.595C326.197 311.37 326.502 311.244 326.82 311.244H357.888C358.206 311.244 358.512 311.37 358.737 311.595C358.962 311.821 359.088 312.126 359.088 312.444C359.088 312.762 358.962 313.067 358.737 313.293C358.512 313.518 358.206 313.644 357.888 313.644Z" fill="#263238"/>
</g>
<path opacity="0.4" d="M450 221.46C450 221.869 450.121 222.268 450.349 222.608C450.576 222.948 450.899 223.212 451.277 223.368C451.655 223.524 452.07 223.564 452.471 223.483C452.872 223.403 453.24 223.205 453.528 222.915C453.816 222.625 454.012 222.256 454.09 221.855C454.168 221.454 454.126 221.039 453.967 220.662C453.809 220.285 453.543 219.963 453.202 219.738C452.861 219.513 452.461 219.394 452.052 219.396C451.782 219.396 451.514 219.449 451.264 219.553C451.014 219.657 450.787 219.809 450.597 220.001C450.406 220.193 450.255 220.421 450.153 220.671C450.05 220.921 449.998 221.19 450 221.46Z" fill="white"/>
<path opacity="0.4" d="M444.9 223.512C446.033 223.512 446.952 222.593 446.952 221.46C446.952 220.327 446.033 219.408 444.9 219.408C443.767 219.408 442.848 220.327 442.848 221.46C442.848 222.593 443.767 223.512 444.9 223.512Z" fill="white"/>
<path opacity="0.4" d="M437.688 223.512C438.821 223.512 439.74 222.593 439.74 221.46C439.74 220.327 438.821 219.408 437.688 219.408C436.555 219.408 435.636 220.327 435.636 221.46C435.636 222.593 436.555 223.512 437.688 223.512Z" fill="white"/>
<path d="M135.912 223.704H101.448C100.054 223.702 98.6732 223.976 97.3848 224.508C96.0964 225.04 94.9256 225.822 93.9393 226.807C92.9529 227.792 92.1705 228.962 91.6366 230.25C91.1028 231.538 90.828 232.918 90.828 234.312V264.312C90.8264 265.706 91.0996 267.087 91.632 268.375C92.1644 269.664 92.9456 270.834 93.9308 271.821C94.916 272.807 96.0859 273.59 97.3737 274.123C98.6615 274.657 100.042 274.932 101.436 274.932H125.88L133.08 284.4V274.932H135.9C138.717 274.932 141.418 273.813 143.409 271.821C145.401 269.83 146.52 267.129 146.52 264.312V234.312C146.52 231.499 145.402 228.8 143.413 226.811C141.424 224.822 138.725 223.704 135.912 223.704Z" fill="#CA2D2D"/>
<path opacity="0.7" d="M135.912 223.704H101.448C100.054 223.702 98.6732 223.976 97.3848 224.508C96.0964 225.04 94.9256 225.822 93.9393 226.807C92.9529 227.792 92.1705 228.962 91.6366 230.25C91.1028 231.538 90.828 232.918 90.828 234.312V264.312C90.8264 265.706 91.0996 267.087 91.632 268.375C92.1644 269.664 92.9456 270.834 93.9308 271.821C94.916 272.807 96.0859 273.59 97.3737 274.123C98.6615 274.657 100.042 274.932 101.436 274.932H125.88L133.08 284.4V274.932H135.9C138.717 274.932 141.418 273.813 143.409 271.821C145.401 269.83 146.52 267.129 146.52 264.312V234.312C146.52 231.499 145.402 228.8 143.413 226.811C141.424 224.822 138.725 223.704 135.912 223.704Z" fill="white"/>
<path d="M116.88 256.8C116.652 256.799 116.427 256.749 116.22 256.654C116.013 256.559 115.829 256.42 115.68 256.248L108.972 248.4C108.838 248.242 108.736 248.06 108.673 247.863C108.61 247.666 108.585 247.459 108.602 247.253C108.619 247.047 108.676 246.846 108.77 246.662C108.865 246.478 108.994 246.314 109.152 246.18C109.31 246.046 109.492 245.944 109.689 245.881C109.886 245.818 110.093 245.794 110.299 245.81C110.505 245.827 110.706 245.884 110.89 245.978C111.074 246.073 111.238 246.202 111.372 246.36L116.88 252.864L125.988 242.136C126.262 241.834 126.642 241.65 127.048 241.623C127.455 241.596 127.856 241.728 128.167 241.991C128.479 242.254 128.675 242.628 128.717 243.033C128.758 243.438 128.64 243.844 128.388 244.164L118.08 256.272C117.93 256.441 117.745 256.576 117.538 256.667C117.331 256.758 117.106 256.804 116.88 256.8Z" fill="white"/>
<path d="M130.772 261.277C137.455 254.595 137.455 243.76 130.772 237.077C124.09 230.395 113.255 230.395 106.572 237.077C99.8897 243.76 99.8896 254.595 106.572 261.277C113.255 267.96 124.09 267.96 130.772 261.277Z" fill="#CA2D2D"/>
<path d="M245.664 436.176L271.428 434.916L268.92 457.32C268.92 457.32 251.04 460.728 243.06 448.008L245.664 436.176Z" fill="#EBB376"/>
<path d="M288.036 442.728L282.168 458.976L268.92 457.32L271.428 434.916L288.036 442.728Z" fill="#EBB376"/>
<path d="M220.932 472.536C230.742 467.413 239.684 460.775 247.428 452.868L245.664 436.176C221.316 439.776 207.264 444.924 207.264 444.924C207.264 444.924 216.288 412.584 208.032 400.8L185.364 404.904C185.364 404.904 161.28 454.968 177.48 472.536H220.932Z" fill="#CA2D2D"/>
<path opacity="0.7" d="M220.896 472.536C230.712 467.415 239.661 460.782 247.416 452.88L245.664 436.164C222.096 439.62 208.164 444.564 207.264 444.888C207.564 443.688 216.096 412.356 208.008 400.788L185.34 404.892C180.679 414.945 176.979 425.415 174.288 436.164C171.048 449.832 170.1 464.556 177.468 472.536H220.896Z" fill="white"/>
<path opacity="0.2" d="M202.26 472.536C210.264 421.824 203.172 408.936 203.172 408.936L174.372 436.14C171.132 449.808 170.184 464.532 177.552 472.512L202.26 472.536Z" fill="black"/>
<path d="M197.256 472.536C202.656 446.904 208.716 406.776 208.056 400.8C207.096 392.112 159.84 354.888 118.824 381.984C110.424 387.516 106.14 447.192 104.676 472.536H197.256Z" fill="#CA2D2D"/>
<path opacity="0.7" d="M197.256 472.536C202.656 446.904 208.716 406.764 208.056 400.788C207.096 392.112 159.828 354.888 118.812 381.996C115.776 384.024 113.28 393.18 111.216 405.276C108.48 421.74 106.584 443.604 105.456 460.092C105.144 464.76 104.88 468.984 104.676 472.536H197.256Z" fill="white"/>
<path d="M177.012 271.86C162.792 266.112 129.264 286.74 126.324 323.52C123.384 360.3 142.032 350.112 142.032 350.112C142.032 350.112 145.356 364.14 158.94 359.808C158.94 359.808 170.16 372.516 180.6 367.344C180.6 367.344 193.596 380.88 200.568 373.74C200.568 373.74 208.152 382.392 215.076 375.84C222 369.288 241.788 302.4 210.744 286.932C179.7 271.464 177.012 271.86 177.012 271.86Z" fill="#263238"/>
<path d="M177.036 422.4L175.668 422.28C177.252 404.568 173.352 396.732 173.268 396.66L174.468 396.024C174.696 396.3 178.656 404.184 177.036 422.4Z" fill="#263238"/>
<path d="M183.468 422.556C174.048 400.368 184.668 395.196 185.1 394.956L185.664 396.156L185.376 395.532L185.664 396.156C185.568 396.156 175.872 401.064 184.728 421.944L183.468 422.556Z" fill="#263238"/>
<path d="M174.264 400.248C174.264 400.248 156.084 385.848 127.86 377.736L118.8 381.984C118.8 381.984 103.608 363.18 128.928 357.024C154.248 350.868 188.688 367.824 197.328 382.344C205.968 396.864 182.304 401.544 182.304 401.544C182.304 401.544 180.132 398.592 174.264 400.248Z" fill="#CA2D2D"/>
<path opacity="0.6" d="M174.264 400.248C174.264 400.248 156.084 385.848 127.86 377.736L118.8 381.984C118.8 381.984 103.608 363.18 128.928 357.024C154.248 350.868 188.688 367.824 197.328 382.344C205.968 396.864 182.304 401.544 182.304 401.544C182.304 401.544 180.132 398.592 174.264 400.248Z" fill="white"/>
<path d="M185.232 422.292C185.232 422.529 185.162 422.761 185.03 422.959C184.898 423.156 184.71 423.31 184.491 423.401C184.272 423.492 184.031 423.515 183.798 423.469C183.565 423.423 183.351 423.308 183.183 423.141C183.016 422.973 182.901 422.759 182.855 422.526C182.809 422.293 182.832 422.052 182.923 421.833C183.014 421.614 183.168 421.426 183.365 421.294C183.563 421.162 183.795 421.092 184.032 421.092C184.35 421.092 184.655 421.218 184.88 421.443C185.105 421.669 185.232 421.974 185.232 422.292Z" fill="white"/>
<path d="M177.444 422.292C177.444 422.529 177.374 422.761 177.242 422.959C177.11 423.156 176.922 423.31 176.703 423.401C176.484 423.492 176.243 423.515 176.01 423.469C175.777 423.423 175.563 423.308 175.395 423.141C175.228 422.973 175.113 422.759 175.067 422.526C175.021 422.293 175.044 422.052 175.135 421.833C175.226 421.614 175.38 421.426 175.577 421.294C175.775 421.162 176.007 421.092 176.244 421.092C176.562 421.092 176.867 421.218 177.092 421.443C177.318 421.669 177.444 421.974 177.444 422.292Z" fill="white"/>
<path d="M164.604 332.4C163.5 345.276 159.552 368.196 149.076 373.2C149.076 373.2 160.788 375.6 179.076 398.772C189.48 391.476 185.544 386.496 185.544 386.496C173.376 378.516 176.532 368.676 181.452 360.096L164.604 332.4Z" fill="#EBB376"/>
<path opacity="0.2" d="M171.456 343.692L181.428 360.132C180.237 362.116 179.229 364.205 178.416 366.372C173.616 363.804 168.36 355.668 169.356 350.1C169.666 347.855 170.378 345.685 171.456 343.692Z" fill="black"/>
<path d="M163.2 305.172C159.852 325.404 158.004 333.876 165.504 346.896C176.772 366.492 201.744 367.416 210.924 348.888C219.18 332.208 223.272 301.92 206.04 288.552C189.036 275.376 166.524 284.928 163.2 305.172Z" fill="#EBB376"/>
<path d="M204.636 277.284C217.752 284.556 230.244 307.284 211.584 301.608C208.764 307.068 198.72 302.064 192.876 295.512C191.892 300.06 181.14 304.62 173.22 297.576C177.048 303.096 170.532 317.028 163.752 314.628C156.972 312.228 141.756 309.072 155.232 287.592C168.708 266.112 190.632 269.496 204.636 277.284Z" fill="#263238"/>
<path d="M199.86 324.264C199.86 324.264 201.06 332.292 203.34 336.648C200.784 338.124 197.34 336.156 197.34 336.156L199.86 324.264Z" fill="#D58745"/>
<path d="M186.78 339.756C187.631 340.172 188.519 340.509 189.432 340.764C189.493 340.782 189.558 340.786 189.622 340.778C189.685 340.769 189.746 340.747 189.8 340.713C189.855 340.679 189.901 340.634 189.937 340.58C189.973 340.527 189.997 340.467 190.008 340.404C190.041 340.272 190.02 340.132 189.95 340.015C189.881 339.899 189.768 339.814 189.636 339.78C187.571 339.201 185.663 338.167 184.051 336.753C182.439 335.338 181.166 333.58 180.324 331.608C180.306 331.544 180.276 331.485 180.234 331.433C180.193 331.381 180.142 331.339 180.083 331.307C180.025 331.276 179.961 331.257 179.895 331.251C179.829 331.245 179.763 331.252 179.7 331.272C179.578 331.323 179.482 331.419 179.43 331.54C179.378 331.661 179.376 331.797 179.424 331.92C180.829 335.348 183.448 338.138 186.78 339.756Z" fill="#263238"/>
<path d="M152.988 319.716C154.119 323.922 156.872 327.509 160.644 329.688C165.528 332.364 169.044 327.78 168.684 322.08C168.312 316.932 165.312 309.348 159.96 309.048C154.608 308.748 151.536 314.4 152.988 319.716Z" fill="#EBB376"/>
<path d="M185.4 305.724C185.52 305.78 185.651 305.809 185.784 305.809C185.917 305.809 186.048 305.78 186.168 305.724C187.233 305.133 188.427 304.813 189.645 304.792C190.863 304.771 192.067 305.05 193.152 305.604C193.26 305.673 193.381 305.719 193.507 305.738C193.634 305.757 193.763 305.749 193.886 305.716C194.01 305.682 194.124 305.622 194.223 305.541C194.322 305.46 194.403 305.358 194.46 305.244C194.579 305.002 194.604 304.725 194.531 304.466C194.458 304.207 194.291 303.984 194.064 303.84C192.71 303.098 191.192 302.71 189.648 302.71C188.104 302.71 186.586 303.098 185.232 303.84C185.005 303.975 184.838 304.193 184.767 304.447C184.696 304.702 184.725 304.974 184.848 305.208C184.965 305.44 185.16 305.623 185.4 305.724Z" fill="#263238"/>
<path d="M217.644 313.62C217.752 313.682 217.872 313.72 217.996 313.733C218.12 313.745 218.246 313.731 218.364 313.692C218.489 313.65 218.604 313.584 218.703 313.497C218.801 313.41 218.882 313.304 218.939 313.185C218.996 313.067 219.028 312.938 219.035 312.806C219.041 312.675 219.021 312.544 218.976 312.42C218.538 310.861 217.746 309.424 216.661 308.221C215.577 307.018 214.229 306.081 212.724 305.484C212.6 305.44 212.469 305.423 212.338 305.435C212.208 305.447 212.081 305.486 211.967 305.551C211.853 305.616 211.755 305.705 211.678 305.811C211.602 305.918 211.549 306.039 211.524 306.168C211.461 306.429 211.498 306.703 211.627 306.938C211.755 307.173 211.967 307.352 212.22 307.44C213.406 307.93 214.464 308.686 215.313 309.649C216.162 310.613 216.779 311.757 217.116 312.996C217.158 313.13 217.226 313.254 217.317 313.361C217.408 313.468 217.519 313.556 217.644 313.62Z" fill="#263238"/>
<path d="M191.856 318.96C191.268 320.568 189.924 321.54 188.856 321.144C187.788 320.748 187.404 319.14 187.992 317.544C188.58 315.948 189.924 314.964 190.98 315.36C192.036 315.756 192.432 317.364 191.856 318.96Z" fill="#263238"/>
<path d="M190.512 315.276L194.496 315.192C194.496 315.192 191.688 317.472 190.512 315.276Z" fill="#263238"/>
<path d="M212.004 325.356C211.416 326.952 210.072 327.924 209.016 327.54C207.96 327.156 207.552 325.524 208.14 323.94C208.728 322.356 210.072 321.372 211.14 321.756C212.208 322.14 212.592 323.748 212.004 325.356Z" fill="#263238"/>
<path d="M210.672 321.66L214.644 321.576C214.644 321.576 211.836 323.868 210.672 321.66Z" fill="#263238"/>
<path d="M189.96 330.3C188.72 330.304 187.493 330.046 186.36 329.544C185.161 328.994 184.095 328.189 183.237 327.186C182.379 326.184 181.75 325.006 181.392 323.736C180.618 320.998 180.83 318.075 181.99 315.476C183.15 312.878 185.185 310.768 187.74 309.516C188.924 308.924 190.224 308.602 191.547 308.573C192.87 308.545 194.183 308.809 195.391 309.349C196.6 309.888 197.674 310.689 198.535 311.693C199.397 312.697 200.026 313.88 200.376 315.156C201.174 317.892 200.956 320.824 199.764 323.412C198.638 326.042 196.596 328.174 194.016 329.412C192.745 330 191.361 330.303 189.96 330.3ZM191.844 309.96C190.649 309.992 189.475 310.278 188.4 310.8C186.146 311.915 184.352 313.781 183.327 316.077C182.302 318.372 182.11 320.954 182.784 323.376C183.073 324.466 183.602 325.478 184.333 326.338C185.063 327.197 185.977 327.882 187.007 328.342C188.037 328.802 189.157 329.026 190.284 328.998C191.412 328.969 192.519 328.688 193.524 328.176C195.795 327.089 197.598 325.218 198.6 322.908L199.224 323.184L198.6 322.908C199.655 320.617 199.847 318.021 199.14 315.6C198.839 314.516 198.305 313.511 197.575 312.655C196.846 311.799 195.938 311.113 194.916 310.644C193.955 310.192 192.906 309.959 191.844 309.96Z" fill="#263238"/>
<path d="M209.928 336.42C208.687 336.431 207.459 336.173 206.328 335.664C205.128 335.112 204.062 334.308 203.202 333.305C202.343 332.303 201.71 331.126 201.348 329.856C200.58 327.116 200.796 324.194 201.958 321.596C203.119 318.999 205.154 316.89 207.708 315.636C208.89 315.042 210.19 314.718 211.513 314.688C212.836 314.658 214.149 314.923 215.357 315.463C216.566 316.002 217.639 316.804 218.499 317.809C219.359 318.815 219.985 319.999 220.332 321.276C221.14 324.01 220.927 326.944 219.732 329.532C218.922 331.493 217.569 333.183 215.833 334.403C214.096 335.623 212.048 336.323 209.928 336.42ZM211.836 316.02C210.625 316.028 209.429 316.298 208.332 316.812C206.062 317.907 204.261 319.781 203.256 322.092C202.194 324.377 202.002 326.971 202.716 329.388C203.017 330.473 203.551 331.48 204.28 332.338C205.01 333.196 205.917 333.884 206.94 334.356C211.14 336.24 216.348 333.792 218.532 328.92C219.582 326.627 219.773 324.034 219.072 321.612C218.769 320.529 218.234 319.525 217.505 318.67C216.775 317.814 215.869 317.127 214.848 316.656C213.894 316.259 212.869 316.062 211.836 316.08V316.02Z" fill="#263238"/>
<path d="M201.36 323.904C201.334 323.818 201.289 323.74 201.229 323.673C201.169 323.607 201.095 323.555 201.012 323.52C200.485 323.428 199.942 323.508 199.464 323.748L198.864 322.548C199.679 322.131 200.62 322.033 201.504 322.272C201.781 322.37 202.032 322.528 202.24 322.736C202.448 322.944 202.606 323.195 202.704 323.472L201.36 323.904Z" fill="#263238"/>
<path d="M168.542 311.063L168.131 312.376L184.375 317.452L184.785 316.139L168.542 311.063Z" fill="#263238"/>
<path opacity="0.2" d="M164.736 437.352C164.736 437.352 133.164 461.544 105.456 460.152C106.584 443.664 108.48 421.752 111.216 405.336C114.048 402.216 115.908 400.32 115.908 400.32L132.708 412.884L128.616 418.02C128.616 418.02 154.044 416.724 162.9 418.02L164.736 437.352Z" fill="black"/>
<path d="M168 417.96L193.272 412.8L194.172 435.336C194.172 435.336 177.024 441.408 167.208 430.044L168 417.96Z" fill="#EBB376"/>
<path d="M210.864 418.032L207.528 434.976L194.172 435.348L193.272 412.812L210.864 418.032Z" fill="#EBB376"/>
<path d="M168 417.96L169.236 435.348L162.948 438.168L160.26 417.96H168Z" fill="#CA2D2D"/>
<path opacity="0.6" d="M168 417.96L169.236 435.348L162.948 438.168L160.26 417.96H168Z" fill="white"/>
<path d="M127.86 377.736C121.079 378.933 114.938 382.486 110.52 387.768C102.9 396.72 76.044 423.312 82.008 445.02C87.972 466.728 145.404 450.576 162.948 438.168L160.26 417.96L120.48 420.876L132.744 412.8C141.156 389.4 127.86 377.736 127.86 377.736Z" fill="#CA2D2D"/>
<path opacity="0.7" d="M127.86 377.736C121.079 378.933 114.938 382.486 110.52 387.768C102.9 396.72 76.044 423.312 82.008 445.02C87.972 466.728 145.404 450.576 162.948 438.168L160.26 417.96L120.48 420.876L132.744 412.8C141.156 389.4 127.86 377.736 127.86 377.736Z" fill="white"/>
<path d="M243.072 436.56L250.308 435.348V454.74L244.572 455.676L243.072 436.56Z" fill="#CA2D2D"/>
<path opacity="0.6" d="M243.072 436.56L250.308 435.348V454.74L244.572 455.676L243.072 436.56Z" fill="white"/>
<path d="M228.444 454.548C228.423 453.486 228.476 452.423 228.6 451.368L228.816 449.772L227.268 450.684L226.344 451.236C226.04 451.373 225.727 451.489 225.408 451.584C224.861 451.757 224.275 451.757 223.728 451.584C223.2 451.389 222.735 451.053 222.384 450.612C221.978 450.125 221.658 449.573 221.436 448.98L220.08 445.2L219.12 449.208C219.024 449.604 218.964 450.012 218.892 450.408C218.82 450.804 218.652 451.152 218.544 451.524C218.314 452.122 217.929 452.648 217.428 453.048C216.868 453.336 216.217 453.392 215.616 453.204C214.859 453.006 214.139 452.69 213.48 452.268L211.392 450.96L212.232 453.084C212.595 453.987 212.884 454.918 213.096 455.868C213.201 456.342 213.265 456.823 213.288 457.308C213.341 457.801 213.231 458.299 212.976 458.724C213.397 458.386 213.686 457.91 213.792 457.38C213.929 456.863 214.002 456.331 214.008 455.796C214.032 455.376 214.032 454.956 214.008 454.536C214.357 454.733 214.718 454.91 215.088 455.064C215.633 455.287 216.218 455.395 216.807 455.38C217.395 455.366 217.975 455.23 218.508 454.98C219.523 454.411 220.314 453.514 220.752 452.436V452.28C221.401 453.019 222.271 453.529 223.233 453.735C224.195 453.94 225.198 453.83 226.092 453.42C226.445 453.26 226.785 453.076 227.112 452.868C227.112 452.868 227.112 452.952 227.112 453C227.198 453.566 227.314 454.127 227.46 454.68C227.606 455.238 227.807 455.781 228.06 456.3C228.3 456.822 228.657 457.282 229.104 457.644C228.835 457.174 228.66 456.657 228.588 456.12C228.505 455.6 228.457 455.075 228.444 454.548Z" fill="#CA2D2D"/>
<path d="M271.368 427.476C270.433 427.567 269.49 427.465 268.596 427.176C267.675 426.902 266.798 426.498 265.992 425.976C265.227 425.408 264.572 424.704 264.06 423.9C263.519 423.101 263.087 422.234 262.776 421.32L261.984 418.92L260.64 421.044C260.065 421.935 259.371 422.743 258.576 423.444C257.931 424.083 257.081 424.473 256.176 424.548H255.888L255.528 424.476C255.276 424.476 255.036 424.356 254.784 424.296C254.283 424.131 253.797 423.922 253.332 423.672C252.393 423.146 251.525 422.501 250.752 421.752L248.664 419.748L249.096 422.496C249.338 423.963 249.43 425.45 249.372 426.936C249.349 427.635 249.207 428.325 248.952 428.976C248.839 429.261 248.632 429.499 248.367 429.652C248.101 429.804 247.791 429.862 247.488 429.816H246.948L247.116 430.26C247.468 431.164 247.828 432.064 248.196 432.96C248.088 432.156 247.956 431.352 247.812 430.56H248.04C248.279 430.542 248.516 430.502 248.748 430.44C248.968 430.326 249.181 430.198 249.384 430.056C249.54 429.888 249.708 429.708 249.852 429.528C250.313 428.798 250.619 427.981 250.752 427.128C250.903 426.336 250.991 425.534 251.016 424.728C251.4 425.046 251.8 425.342 252.216 425.616C252.779 425.963 253.374 426.256 253.992 426.492C254.652 426.766 255.354 426.924 256.068 426.96C257.553 426.939 258.978 426.375 260.076 425.376C260.547 424.981 260.985 424.547 261.384 424.08C261.619 424.493 261.875 424.894 262.152 425.28C262.87 426.271 263.765 427.122 264.792 427.788C265.816 428.41 266.941 428.849 268.116 429.084C268.871 429.231 269.64 429.287 270.408 429.252C270.312 429.492 270.204 429.732 270.12 429.984C269.909 430.676 269.745 431.382 269.628 432.096C269.5 432.813 269.468 433.543 269.532 434.268C269.569 434.991 269.788 435.692 270.168 436.308C269.961 435.653 269.908 434.959 270.012 434.28C270.102 433.606 270.259 432.943 270.48 432.3C270.941 431.046 271.524 429.84 272.22 428.7L272.976 427.416L271.368 427.476Z" fill="#CA2D2D"/>
<path d="M511.44 498.396L90.6 498.396C89.187 498.396 87.8318 497.835 86.8326 496.835C85.8334 495.836 85.272 494.481 85.272 493.068V480.108L516.768 480.108V493.068C516.768 494.481 516.207 495.836 515.208 496.835C514.208 497.835 512.853 498.396 511.44 498.396Z" fill="#CA2D2D"/>
<path opacity="0.2" d="M85.26 489.24L516.768 489.24V480.096L85.26 480.096V489.24Z" fill="black"/>
<path d="M76.224 482.484H525.816C527.182 482.484 528.493 481.942 529.46 480.977C530.428 480.012 530.973 478.702 530.976 477.336C530.976 475.967 530.432 474.655 529.465 473.687C528.497 472.72 527.184 472.176 525.816 472.176H76.224C74.8554 472.176 73.543 472.72 72.5753 473.687C71.6076 474.655 71.064 475.967 71.064 477.336C71.0671 478.702 71.6122 480.012 72.5795 480.977C73.5469 481.942 74.8575 482.484 76.224 482.484Z" fill="#CA2D2D"/>
<path d="M495.348 409.2L482.22 468.744C481.98 469.698 481.433 470.546 480.663 471.158C479.893 471.769 478.943 472.11 477.96 472.128H406.248C405.802 472.116 405.364 472.002 404.97 471.793C404.575 471.584 404.234 471.286 403.974 470.924C403.714 470.561 403.541 470.143 403.469 469.702C403.397 469.262 403.428 468.811 403.56 468.384L416.664 409.296C416.933 408.396 417.503 407.615 418.278 407.084C419.053 406.554 419.987 406.305 420.924 406.38H492.636C494.556 406.428 495.768 407.304 495.348 409.2Z" fill="#263238"/>
<path opacity="0.4" d="M495.348 409.2L482.22 468.744C481.98 469.698 481.433 470.546 480.663 471.157C479.893 471.769 478.943 472.11 477.96 472.128H408.684C408.236 472.118 407.798 472.005 407.402 471.797C407.006 471.588 406.663 471.291 406.402 470.928C406.14 470.565 405.966 470.147 405.893 469.705C405.821 469.264 405.852 468.811 405.984 468.384L419.112 409.296C419.375 408.392 419.943 407.607 420.72 407.076C421.497 406.544 422.434 406.298 423.372 406.38H492.636C494.556 406.428 495.768 407.304 495.348 409.2Z" fill="white"/>
<path d="M483.912 470.292L496.968 411.06C497.4 409.116 496.188 408.24 494.256 408.24H424.992C424.055 408.163 423.12 408.41 422.344 408.941C421.568 409.473 420.999 410.255 420.732 411.156L407.472 471.072L483.912 470.292Z" fill="#CA2D2D"/>
<path opacity="0.4" d="M496.968 411.048L490.08 442.344L483.9 470.292L442.98 470.712L407.484 471.06L420.684 411.156C420.947 410.254 421.513 409.471 422.287 408.94C423.062 408.408 423.996 408.161 424.932 408.24H494.28C496.2 408.24 497.4 409.128 496.968 411.048Z" fill="white"/>
<path opacity="0.2" d="M490.08 442.344L483.9 470.292L442.98 470.712H408.996L414.552 445.152C414.73 444.36 415.171 443.652 415.803 443.142C416.435 442.632 417.22 442.351 418.032 442.344H490.08Z" fill="black"/>
<path d="M491.256 446.232C490.991 445.33 490.421 444.548 489.645 444.019C488.868 443.49 487.932 443.245 486.996 443.328H417.732C415.812 443.328 414.6 444.192 415.02 446.136L420.276 469.968H408.576C408.283 469.968 408.002 470.084 407.795 470.291C407.588 470.498 407.472 470.779 407.472 471.072C407.472 471.365 407.588 471.646 407.795 471.853C408.002 472.06 408.283 472.176 408.576 472.176H493.896C494.268 472.169 494.634 472.079 494.968 471.913C495.301 471.747 495.593 471.509 495.823 471.216C496.053 470.923 496.214 470.583 496.296 470.219C496.378 469.856 496.378 469.479 496.296 469.116L491.256 446.232Z" fill="#CA2D2D"/>
<path opacity="0.4" d="M491.256 446.232C490.991 445.33 490.421 444.548 489.645 444.019C488.868 443.49 487.932 443.245 486.996 443.328H417.732C415.812 443.328 414.6 444.192 415.02 446.136L420.276 469.968H408.576C408.283 469.968 408.002 470.084 407.795 470.291C407.588 470.498 407.472 470.779 407.472 471.072C407.472 471.365 407.588 471.646 407.795 471.853C408.002 472.06 408.283 472.176 408.576 472.176H493.896C494.268 472.169 494.634 472.079 494.968 471.913C495.301 471.747 495.593 471.509 495.823 471.216C496.053 470.923 496.214 470.583 496.296 470.219C496.378 469.856 496.378 469.479 496.296 469.116L491.256 446.232Z" fill="white"/>
<path d="M406.5 460.692H402.48L401.976 462.864H405.888L406.5 460.692Z" fill="black"/>
<path d="M381.096 472.452H369.516C369.426 472.454 369.336 472.437 369.252 472.403C369.169 472.369 369.092 472.319 369.029 472.255C368.965 472.191 368.914 472.115 368.881 472.032C368.847 471.948 368.83 471.858 368.832 471.768C368.832 471.587 368.904 471.413 369.032 471.284C369.161 471.156 369.334 471.084 369.516 471.084H381.096C382.996 471.088 384.873 470.663 386.586 469.843C388.3 469.022 389.807 467.826 390.996 466.344C392.313 464.699 393.984 463.372 395.886 462.462C397.787 461.552 399.868 461.082 401.976 461.088H404.016C404.196 461.091 404.369 461.164 404.496 461.292C404.624 461.419 404.697 461.592 404.7 461.772C404.7 461.953 404.628 462.127 404.5 462.256C404.371 462.384 404.197 462.456 404.016 462.456H402C400.1 462.453 398.223 462.877 396.509 463.697C394.796 464.518 393.289 465.714 392.1 467.196C390.78 468.844 389.104 470.172 387.199 471.082C385.294 471.992 383.207 472.461 381.096 472.452Z" fill="black"/>
<path d="M188.136 463.98V468.984C188.136 471.24 190.86 472.176 193.116 472.176H369.012C371.244 472.176 373.896 471.24 373.896 468.984V463.98H188.136Z" fill="#263238"/>
<path opacity="0.4" d="M188.136 463.98V468.984C188.136 471.24 190.86 472.176 193.116 472.176H369.012C371.244 472.176 373.896 471.24 373.896 468.984V463.98H188.136Z" fill="white"/>
<path opacity="0.2" d="M248.064 463.98V468.984C248.064 471.24 250.74 472.176 252.996 472.176H369.012C371.244 472.176 373.896 471.24 373.896 468.984V463.98H248.064Z" fill="black"/>
<path d="M403.332 368.796L382.392 463.776C382.016 465.303 381.147 466.662 379.918 467.643C378.69 468.624 377.172 469.171 375.6 469.2H261.204C258.168 469.2 256.2 466.356 256.908 463.2L277.824 368.94C278.532 365.844 281.556 364.296 284.628 364.296H399.012C402.084 364.308 404.016 365.7 403.332 368.796Z" fill="#263238"/>
<path opacity="0.4" d="M403.332 368.796L382.392 463.776C382.016 465.303 381.147 466.662 379.918 467.643C378.69 468.624 377.172 469.171 375.6 469.2H265.092C262.02 469.2 260.088 466.356 260.772 463.2L281.712 368.94C282.396 365.844 285.444 364.296 288.516 364.296H399.012C402.084 364.308 404.016 365.7 403.332 368.796Z" fill="white"/>
<path opacity="0.2" d="M346.932 417.072C346.932 425.208 338.22 431.82 331.824 431.82C325.428 431.82 321.648 425.208 323.424 417.072C325.2 408.936 331.596 402.612 337.824 402.36C336 410.496 339.9 417.072 346.224 417.072C346.459 417.094 346.696 417.094 346.932 417.072Z" fill="black"/>
</svg>
