<svg width="600" height="600" viewBox="0 0 600 600" fill="none" xmlns="http://www.w3.org/2000/svg">
<path d="M108.228 511.428C216.144 563.364 391.128 563.364 499.056 511.428C606.984 459.492 606.972 375.3 499.056 323.364C391.14 271.428 216.144 271.428 108.228 323.364C0.312117 375.3 0.300115 459.492 108.228 511.428Z" fill="#F5F5F5"/>
<path d="M530.832 458.4C504.78 470.712 462.612 470.568 436.644 458.076C410.676 445.584 410.748 425.496 436.8 413.184C462.852 400.872 505.02 401.028 530.988 413.508C556.956 425.988 556.884 446.064 530.832 458.4Z" fill="#E0E0E0"/>
<path d="M384.612 78.6719L392.784 83.3879C392.784 83.0279 392.712 82.6679 392.712 82.3079V79.9079C392.712 75.6959 395.676 73.9799 399.324 76.0919C400.893 77.0539 402.235 78.3433 403.26 79.8719C403.86 74.5799 408.06 72.5999 413.064 75.5159C418.524 78.6719 422.952 86.3159 422.952 92.6399V96.2399C422.986 97.6526 422.703 99.055 422.124 100.344L428.904 104.256C429.972 104.953 430.862 105.892 431.5 106.997C432.138 108.102 432.506 109.342 432.576 110.616C432.576 112.944 430.932 113.892 428.904 112.728L384.612 87.1319C383.543 86.438 382.653 85.5012 382.015 84.398C381.377 83.2949 381.009 82.0565 380.94 80.7839C380.94 78.4559 382.584 77.5079 384.612 78.6719Z" fill="#EBEBEB"/>
<path d="M349.62 102.492L355.788 106.092C355.788 105.816 355.788 105.54 355.788 105.276V103.452C355.788 100.272 358.02 98.976 360.78 100.572C361.963 101.298 362.974 102.273 363.744 103.428C364.2 99.432 367.344 97.944 371.148 100.14C373.322 101.554 375.131 103.462 376.428 105.708C377.726 107.954 378.474 110.474 378.612 113.064V115.74C378.64 116.807 378.423 117.866 377.976 118.836L383.1 121.8C383.909 122.323 384.582 123.031 385.064 123.866C385.546 124.7 385.823 125.638 385.872 126.6C385.872 128.364 384.672 129.084 383.1 128.196L349.62 108.876C348.814 108.35 348.144 107.641 347.665 106.807C347.185 105.973 346.909 105.037 346.86 104.076C346.86 102.324 348.096 101.604 349.62 102.492Z" fill="#EBEBEB"/>
<path d="M130.32 405.84L138.264 401.304C138.264 401.304 142.08 380.28 139.236 362.208C135.216 336.792 117.924 328.032 111.636 330.552C105.348 333.072 103.872 340.608 115.236 355.296C121.92 363.948 130.524 382.26 130.32 405.84Z" fill="#CA2D2D"/>
<g opacity="0.1">
<path opacity="0.1" d="M130.32 405.84L138.264 401.304C138.264 401.304 142.08 380.28 139.236 362.208C135.216 336.792 117.924 328.032 111.636 330.552C105.348 333.072 103.872 340.608 115.236 355.296C121.92 363.948 130.524 382.26 130.32 405.84Z" fill="black"/>
</g>
<path d="M133.2 395.748H133.116C132.968 395.727 132.834 395.649 132.744 395.529C132.654 395.41 132.615 395.26 132.636 395.112C135.924 371.316 126.36 345.264 115.608 334.752C115.501 334.647 115.441 334.504 115.44 334.354C115.439 334.205 115.497 334.061 115.602 333.954C115.707 333.847 115.85 333.787 116 333.786C116.149 333.785 116.293 333.843 116.4 333.948C127.344 344.64 137.1 371.148 133.764 395.268C133.741 395.402 133.672 395.523 133.569 395.611C133.466 395.698 133.335 395.747 133.2 395.748V395.748Z" fill="white"/>
<path d="M108.252 418.596C107.052 419.316 104.4 417.732 103.452 417.072C101.753 415.911 100.381 414.332 99.468 412.488C98.4407 410.399 98.0924 408.041 98.472 405.744C98.6644 404.524 98.9492 403.321 99.324 402.144C99.66 400.944 99.984 399.816 100.32 398.652C100.729 397.527 100.904 396.331 100.836 395.136C100.524 392.736 98.436 391.092 96.492 389.652C94.368 388.056 92.148 385.956 92.16 383.088C92.3222 380.864 93.212 378.756 94.692 377.088C96.06 375.36 97.692 373.824 98.928 371.988C99.9021 370.707 100.41 369.133 100.368 367.524C100.24 366.541 99.9129 365.594 99.408 364.74C98.2393 362.965 97.216 361.099 96.348 359.16C95.652 357.156 95.76 354.66 97.32 353.22C98.0209 352.702 98.8182 352.329 99.665 352.123C100.512 351.917 101.391 351.882 102.252 352.02C103.865 352.211 105.417 352.751 106.8 353.604C111.36 356.136 114 361.536 118.8 363.48C120.716 364.078 122.668 364.555 124.644 364.908C125.631 365.095 126.568 365.486 127.394 366.056C128.221 366.627 128.919 367.364 129.444 368.22C131.22 371.76 127.932 376.128 129.18 379.884C130.284 383.22 133.512 384.492 135.336 387.492C136.075 388.817 136.37 390.344 136.176 391.848C136.022 394.392 135.4 396.886 134.34 399.204C133.166 401.515 131.818 403.733 130.308 405.84C130.236 405.912 108.444 418.476 108.252 418.596Z" fill="#CA2D2D"/>
<path d="M121.2 411.708C121.125 411.706 121.051 411.69 120.982 411.659C120.914 411.629 120.852 411.585 120.8 411.53C120.749 411.475 120.709 411.411 120.683 411.34C120.657 411.27 120.645 411.195 120.648 411.12C121.584 388.608 110.976 363.756 103.26 356.532C103.206 356.481 103.162 356.419 103.131 356.351C103.101 356.283 103.084 356.21 103.082 356.135C103.079 356.06 103.092 355.986 103.118 355.916C103.145 355.846 103.185 355.782 103.236 355.728C103.287 355.674 103.349 355.63 103.417 355.599C103.485 355.569 103.558 355.552 103.633 355.549C103.708 355.547 103.782 355.56 103.852 355.586C103.922 355.613 103.986 355.653 104.04 355.704C111.912 363.072 122.736 388.332 121.788 411.168C121.785 411.242 121.767 411.315 121.736 411.382C121.705 411.449 121.661 411.51 121.606 411.56C121.551 411.61 121.487 411.649 121.418 411.674C121.348 411.7 121.274 411.711 121.2 411.708V411.708Z" fill="white"/>
<path d="M117.78 385.116H117.612C112.281 383.64 106.804 382.755 101.28 382.476C101.206 382.473 101.133 382.455 101.066 382.424C100.999 382.393 100.938 382.349 100.888 382.294C100.838 382.239 100.799 382.175 100.774 382.106C100.748 382.036 100.737 381.962 100.74 381.888C100.74 381.813 100.755 381.739 100.785 381.67C100.815 381.601 100.859 381.539 100.915 381.488C100.97 381.437 101.035 381.399 101.107 381.375C101.178 381.35 101.253 381.341 101.328 381.348C106.948 381.621 112.522 382.511 117.948 384C118.096 384.022 118.229 384.103 118.318 384.223C118.407 384.343 118.444 384.494 118.422 384.642C118.4 384.79 118.32 384.923 118.199 385.012C118.079 385.101 117.928 385.138 117.78 385.116Z" fill="white"/>
<path d="M105.3 434.064V425.22H107.484C110.028 420.06 114.78 415.2 121.8 411.156C143.82 398.436 179.52 398.436 201.54 411.156C208.572 415.2 213.324 420.06 215.868 425.22H218.028V433.776C218.208 442.176 212.724 450.732 201.54 457.188C179.52 469.896 143.82 469.896 121.8 457.188C110.748 450.804 105.252 442.428 105.3 434.064Z" fill="#263238"/>
<path d="M201.6 402.192C179.58 389.484 143.88 389.484 121.86 402.192C99.84 414.9 99.84 435.516 121.86 448.236C143.88 460.956 179.58 460.944 201.6 448.236C223.62 435.528 223.56 414.912 201.6 402.192Z" fill="#455A64"/>
<path d="M176.196 266.496V421.296C176.196 423.432 174.78 425.58 171.948 427.212C166.284 430.488 157.092 430.488 151.428 427.212C148.596 425.58 147.18 423.432 147.18 421.296V266.496H176.196Z" fill="#37474F"/>
<path d="M147.168 303.096V313.584L176.196 330.312V319.896L147.168 303.096Z" fill="#263238"/>
<path d="M312.384 166.428L309.912 171.384L283.332 224.664L270.72 249.984L228 335.592L223.296 345.024C223.016 345.024 222.74 345.024 222.468 345.024C220.791 345.045 219.138 344.631 217.668 343.824L47.508 245.424C46.1128 244.516 44.9512 243.292 44.1173 241.852C43.2833 240.411 42.8005 238.794 42.708 237.132V163.812C42.708 127.152 66.84 83.508 96.636 66.3C110.808 58.152 123.6 57.492 133.2 62.88V62.808L312.384 166.428Z" fill="#455A64"/>
<path d="M276.444 170.304C264.444 174.756 220.668 210.888 220.668 267.78C220.668 315.612 220.728 340.44 220.74 344.904C221.323 345.005 221.913 345.057 222.504 345.06C222.784 345.06 223.06 345.06 223.332 345.06L228.036 335.628L270.72 250.02L283.332 224.712L286.224 218.916L276.444 170.304Z" fill="#37474F"/>
<path d="M328.032 284.94C327.53 285.725 326.852 286.382 326.052 286.86L325.56 287.172L227.304 343.896C226.084 344.559 224.731 344.941 223.344 345.012C223.064 345.012 222.788 345.012 222.516 345.012V267.732C222.516 254.532 225.66 240.468 231.06 227.016L235.86 229.824L270.66 249.936L324.744 281.136L327.516 282.732C327.718 282.82 327.896 282.954 328.037 283.124C328.177 283.293 328.277 283.492 328.327 283.707C328.377 283.921 328.376 284.144 328.325 284.358C328.274 284.572 328.174 284.771 328.032 284.94V284.94Z" fill="#37474F"/>
<path d="M312.384 166.44C302.856 161.436 290.256 162.312 276.444 170.304C260.952 179.22 246.972 195.348 237.156 213.9C234.884 218.187 232.845 222.593 231.048 227.1C225.648 240.552 222.504 254.628 222.504 267.816V345.096C222.784 345.096 223.06 345.096 223.332 345.096C224.719 345.025 226.072 344.643 227.292 343.98L325.548 287.256L326.04 286.944C326.791 286.406 327.459 285.758 328.02 285.024C329.405 283.319 330.212 281.218 330.324 279.024V205.524C330.336 185.88 323.4 172.224 312.384 166.44ZM323.376 282L229.476 336.216C228.684 336.672 228.036 336.3 228.036 335.388V267.78C228.036 255.984 230.76 242.904 235.896 229.872C235.979 229.619 236.076 229.371 236.184 229.128C238.084 224.357 240.268 219.705 242.724 215.196C252.264 197.568 265.308 183.084 279.216 175.092C286.356 170.952 293.124 168.864 299.316 168.864C303.003 168.82 306.643 169.69 309.912 171.396C319.308 176.4 324.804 188.556 324.804 205.524V279.6C324.765 280.083 324.616 280.55 324.369 280.966C324.121 281.382 323.782 281.736 323.376 282Z" fill="#455A64"/>
<path d="M421.38 365.724V358.968H420.744V359.928C420.335 358.051 419.744 356.219 418.98 354.456C415.38 346.176 407.952 338.232 396.528 331.656L332.988 294.972C331.501 294.216 329.856 293.823 328.188 293.823C326.52 293.823 324.875 294.216 323.388 294.972L226.188 351.06C224.979 350.102 223.937 348.95 223.104 347.652V354.468C223.158 355.064 223.37 355.635 223.718 356.122C224.066 356.61 224.538 356.995 225.084 357.24L288.684 393.912C305.688 403.74 327.924 408.564 349.464 408.312C368.1 408.072 386.22 403.992 400.032 396.012C414.312 387.804 421.356 376.908 421.356 365.784L421.38 365.724Z" fill="#263238"/>
<path d="M418.98 354.456C415.38 346.176 407.952 338.232 396.528 331.656L332.988 294.972C331.501 294.216 329.856 293.823 328.188 293.823C326.52 293.823 324.875 294.216 323.388 294.972L226.188 351.06L288.588 387.06C305.592 396.888 327.828 401.712 349.368 401.46C368.004 401.208 386.124 397.14 399.936 389.16C412.752 381.78 419.76 372.252 421.044 362.328C420.742 359.618 420.046 356.966 418.98 354.456V354.456Z" fill="#455A64"/>
<path d="M421.2 362.316C420.862 359.604 420.131 356.956 419.028 354.456C415.428 346.176 408 338.232 396.576 331.656L333.036 294.972C331.549 294.216 329.904 293.822 328.236 293.822C326.568 293.822 324.923 294.216 323.436 294.972L226.236 351.06L225.132 350.436C222.492 348.9 222.492 346.428 225.132 344.904L323.388 288.168C324.875 287.412 326.52 287.018 328.188 287.018C329.856 287.018 331.501 287.412 332.988 288.168L396.528 324.852C407.952 331.452 415.428 339.396 418.98 347.652C420.147 350.323 420.904 353.155 421.224 356.052C421.465 358.134 421.457 360.236 421.2 362.316Z" fill="#37474F"/>
<path d="M324.804 205.524V281.22L235.896 229.872C235.979 229.619 236.076 229.371 236.184 229.128C245.712 205.308 261.792 185.112 279.216 175.128C286.356 170.988 293.124 168.9 299.316 168.9C315.036 168.864 324.804 182.904 324.804 205.524Z" fill="#263238"/>
<path d="M164.724 263.568L172.548 259.056H172.608C175.284 257.544 178.968 257.772 183.036 260.124C191.22 264.852 197.856 276.348 197.856 285.804C197.856 290.52 196.2 293.844 193.536 295.404L186.264 299.568L184.944 297.372C183.452 297.039 182.02 296.481 180.696 295.716C172.512 290.988 165.864 279.492 165.864 270.036C165.867 268.762 166.024 267.493 166.332 266.256L164.724 263.568Z" fill="#E0E0E0"/>
<path d="M175.512 264.42C183.696 269.148 190.344 280.644 190.344 290.1C190.344 299.556 183.696 303.384 175.512 298.656C167.328 293.928 160.68 282.432 160.68 272.976C160.68 263.52 167.316 259.692 175.512 264.42Z" fill="#FAFAFA"/>
<path d="M175.512 285.6C174.373 285.6 173.28 285.147 172.474 284.342C171.669 283.536 171.216 282.443 171.216 281.304V159.768C171.216 158.629 171.669 157.536 172.474 156.73C173.28 155.925 174.373 155.472 175.512 155.472C176.651 155.472 177.744 155.925 178.55 156.73C179.355 157.536 179.808 158.629 179.808 159.768V281.316C179.805 282.453 179.351 283.543 178.546 284.346C177.74 285.149 176.649 285.6 175.512 285.6V285.6Z" fill="#EBEBEB"/>
<path d="M171.216 171.78L128.136 146.916L141.624 172.848L128.136 183.228L171.216 208.092V171.78Z" fill="#CA2D2D"/>
<path d="M396.144 284.04C396.1 283.229 395.866 282.44 395.459 281.737C395.052 281.034 394.485 280.438 393.804 279.996L274.176 210.924C273.452 210.557 272.653 210.366 271.842 210.366C271.031 210.366 270.231 210.557 269.508 210.924L266.868 212.448C266.185 212.891 265.617 213.489 265.21 214.195C264.803 214.9 264.569 215.691 264.528 216.504V308.196C264.574 309.008 264.81 309.798 265.216 310.502C265.623 311.206 266.188 311.806 266.868 312.252L386.496 381.312C387.221 381.679 388.023 381.87 388.836 381.87C389.649 381.87 390.45 381.679 391.176 381.312L393.804 379.788C394.483 379.343 395.048 378.746 395.454 378.044C395.86 377.342 396.097 376.554 396.144 375.744V284.04Z" fill="#CA2D2D"/>
<path opacity="0.4" d="M395.46 281.736L388.8 285.6L265.2 214.2C265.594 213.485 266.164 212.882 266.856 212.448L269.496 210.936C270.218 210.564 271.018 210.369 271.83 210.369C272.642 210.369 273.442 210.564 274.164 210.936L393.792 279.996C394.487 280.425 395.061 281.024 395.46 281.736V281.736Z" fill="white"/>
<path opacity="0.1" d="M396.144 284.04V375.732C396.102 376.545 395.869 377.336 395.462 378.041C395.055 378.746 394.487 379.345 393.804 379.788L391.2 381.312C390.993 381.427 390.776 381.524 390.552 381.6C390.24 381.704 389.918 381.777 389.592 381.816C388.977 381.898 388.352 381.878 387.744 381.756L387.288 381.636L387.012 381.528C387.188 381.603 387.378 381.641 387.57 381.641C387.762 381.641 387.951 381.603 388.128 381.528C388.377 381.363 388.576 381.132 388.703 380.861C388.83 380.59 388.88 380.289 388.848 379.992V288.264C388.873 287.85 388.772 287.437 388.557 287.082C388.343 286.726 388.026 286.444 387.648 286.272L388.848 285.564L395.484 281.736C395.895 282.436 396.122 283.229 396.144 284.04Z" fill="black"/>
<path opacity="0.2" d="M388.8 285.6L333.408 306.3C331.491 307.017 329.388 307.059 327.444 306.42C325.501 305.78 323.833 304.498 322.716 302.784L313.824 289.152L264.756 213.972L312.048 289.668L264.504 308.268C264.545 309.098 264.797 309.903 265.236 310.608L312.18 289.884L322.512 306.42C323.661 308.258 325.434 309.62 327.505 310.257C329.577 310.894 331.809 310.763 333.792 309.888L341.148 306.636L388.08 381.54C388.329 381.375 388.528 381.144 388.655 380.873C388.782 380.602 388.832 380.301 388.8 380.004V378.468L341.4 306.504L388.8 285.6Z" fill="black"/>
<path d="M521.844 399.6L519.792 396.564C519.792 396.564 501.792 365.724 498.096 359.664C494.4 353.604 481.08 344.268 481.08 344.268L482.484 287.532L451.2 292.08C450.948 298.848 452.004 324.72 456.9 337.68C459.601 345.044 463.018 352.126 467.1 358.824C468.564 361.344 512.328 404.208 512.328 404.208L513.6 405.6C514.442 406.566 515.597 407.205 516.862 407.407C518.127 407.608 519.423 407.36 520.524 406.704L520.632 406.632C521.716 405.853 522.451 404.679 522.677 403.364C522.904 402.049 522.605 400.697 521.844 399.6V399.6Z" fill="#FFA8A7"/>
<path d="M518.268 393.924L512.652 384.324C512.652 384.324 512.736 388.836 509.712 391.524C507.732 393.196 505.39 394.383 502.872 394.992L510.576 402.564C510.576 402.564 518.184 402.396 518.268 393.924Z" fill="#F0F0F0"/>
<path d="M529.2 407.088C528.948 405.684 527.256 403.74 526.164 402.504C523.968 399.756 518.904 391.32 517.932 390.24C517.836 390.094 517.705 389.974 517.551 389.891C517.397 389.808 517.225 389.765 517.05 389.765C516.875 389.765 516.703 389.808 516.549 389.891C516.395 389.974 516.264 390.094 516.168 390.24L516.9 391.5C516.9 391.5 517.944 393.732 515.16 397.5C513.96 399.108 510.3 400.956 508.476 400.476L507.468 399.492C506.712 401.04 507.936 401.892 510.192 404.112C512.448 406.332 511.632 410.736 510.924 412.704C509.497 415.965 507.352 418.861 504.648 421.176C499.248 425.976 499.044 427.704 501.444 429.264C503.484 430.584 509.472 431.22 513.96 429.264C518.064 427.512 519.6 425.172 520.368 421.224C521.136 417.276 523.536 416.004 525.612 414.216C527.688 412.428 529.524 409.2 529.2 407.088Z" fill="#263238"/>
<path d="M498.48 292.236L457.26 286.668H454.452C454.452 286.668 453.372 295.068 460.188 304.548C462.553 307.989 465.29 311.161 468.348 314.004C468.348 314.004 463.452 343.38 461.736 357.516C460.344 368.928 455.736 410.016 454.536 420.144C454.365 421.661 454.108 423.168 453.768 424.656L451.944 432.552L460.884 434.616L463.44 428.616C464.133 425.612 465.085 422.673 466.284 419.832C470.934 408.282 474.905 396.47 478.176 384.456C480.576 375.06 479.58 364.44 479.376 361.92C479.376 361.92 494.184 330.72 497.868 312.48C499.38 305.835 499.588 298.96 498.48 292.236V292.236Z" fill="#FFA8A7"/>
<path d="M454.452 421.2L455.736 409.86C455.736 409.86 460.944 413.676 469.644 411.348C468.324 414.948 466.752 418.98 465.048 423.216C465.048 423.216 460.668 428.364 457.116 427.128C453.564 425.892 454.452 421.2 454.452 421.2Z" fill="#F0F0F0"/>
<path d="M466.14 420.492L465.66 421.692C465.66 421.692 463.464 424.584 457.728 423.204C456.796 423.023 455.966 422.498 455.404 421.733C454.841 420.968 454.587 420.02 454.692 419.076C454.692 419.076 453.384 419.076 453.252 420.132C452.687 424.32 450.99 428.274 448.344 431.568C446.659 433.296 444.741 434.778 442.644 435.972C437.52 439.128 432.78 441.12 432.192 442.992C431.232 446.088 435.336 448.848 441.792 449.22C444.809 449.452 447.837 448.958 450.624 447.78C453.112 446.471 455.334 444.708 457.176 442.584C458.748 441.012 463.536 439.428 464.724 437.532C465.228 436.716 465.492 433.488 465.492 431.712V430.416C465.752 427.764 466.345 425.156 467.256 422.652C467.664 421.2 466.14 420.492 466.14 420.492Z" fill="#263238"/>
<path d="M451.2 292.08C451.2 292.08 450.948 308.352 451.2 315.528C451.452 322.704 452.784 341.076 452.784 341.076C456.247 342.604 460.003 343.354 463.788 343.272L463.368 346.14C472.23 350.896 482.505 352.314 492.324 350.136C492.324 350.136 498.684 327.492 499.668 311.52C500.652 295.548 498.564 292.236 498.564 292.236L451.2 292.08Z" fill="#455A64"/>
<path d="M463.92 341.856C473.12 346.303 483.556 347.5 493.524 345.252L493.164 346.668C493.164 346.668 479.808 351.3 463.704 343.272L463.92 341.856Z" fill="#37474F"/>
<path d="M452.4 336.348C452.4 336.348 459.072 338.748 464.4 338.628L464.22 339.828C464.22 339.828 457.2 339.6 452.4 337.62V336.348Z" fill="#37474F"/>
<path d="M462.888 348.852C462.888 348.852 467.316 318.192 468.348 314.052C468.348 314.052 460.74 311.136 458.412 308.46C458.412 308.46 460.068 312.192 465.504 315.516L462.888 348.852Z" fill="#F28F8F"/>
<path d="M458.4 308.4C458.4 308.4 460.056 312.132 465.492 315.456L463.32 343.26H463.692C465.024 334.236 467.58 317.064 468.336 313.98C468.348 313.992 460.8 311.076 458.4 308.4Z" fill="#263238"/>
<path d="M479.424 361.944C480.624 360.3 483.024 354.744 484.44 351.072H484.728L481.128 362.784C481.896 366.643 482.242 370.574 482.16 374.508L479.76 372.408C479.856 370.644 479.424 361.944 479.424 361.944Z" fill="#F28F8F"/>
<path d="M455.808 279.288C461.808 259.212 460.608 242.208 461.808 237L446.364 258.6C445.707 265.713 444.654 272.784 443.208 279.78C441.42 287.46 438.984 297.024 436.068 302.976C435.539 304.027 434.642 304.847 433.548 305.28C430.632 306.48 429.288 307.968 426.948 309.696C425.112 311.052 423.72 311.232 423.84 311.784C424.037 312.405 424.463 312.929 425.03 313.25C425.598 313.57 426.266 313.664 426.9 313.512C428.313 313.214 429.687 312.751 430.992 312.132C429.651 314.341 427.966 316.322 426 318C421.536 321.888 420.888 324.636 428.328 325.992C432.984 326.832 437.208 324.6 442.5 314.928C444.519 311.398 446.283 307.729 447.78 303.948C451.308 294.108 453.984 285.36 455.808 279.288Z" fill="#FFA8A7"/>
<path d="M467.028 228C459.828 228 452.628 229.656 450.228 237.348C447.828 245.04 444.636 266.676 444.636 266.676C444.636 266.676 447.672 270.732 457.836 270.096L467.028 228Z" fill="#E0E0E0"/>
<path d="M481.896 228.54C486.972 229.74 492.852 230.796 497.76 233.232C501.18 234.924 496.176 263.232 496.176 263.232L498.48 292.2C491.712 299.52 465.852 302.856 451.152 292.044C451.152 292.044 451.284 252.624 451.308 245.136C451.332 237.648 455.532 228.648 467.028 228.012L481.896 228.54Z" fill="#F5F5F5"/>
<path d="M462.276 237.84C463.212 240.048 464.916 240.936 468.012 241.284C469.567 241.393 471.128 241.185 472.601 240.674C474.073 240.162 475.427 239.357 476.58 238.308L472.728 234.468L467.844 238.152L467.424 234.06L462.276 237.84Z" fill="#CA2D2D"/>
<path opacity="0.1" d="M462.276 237.84C463.212 240.048 464.916 240.936 468.012 241.284C469.567 241.393 471.128 241.185 472.601 240.674C474.073 240.162 475.427 239.357 476.58 238.308L472.728 234.468L467.844 238.152L467.424 234.06L462.276 237.84Z" fill="black"/>
<path d="M496.2 262.716L491.784 250.392L496.908 272.532L496.2 262.716Z" fill="#E0E0E0"/>
<path d="M489.996 202.488L486.768 215.064C486.431 216.373 485.668 217.532 484.599 218.358C483.529 219.184 482.215 219.629 480.864 219.624H477.132L477.192 202.068L489.996 202.488Z" fill="#263238"/>
<path d="M477.887 197.838C477.923 190.389 471.914 184.321 464.465 184.284C457.016 184.248 450.948 190.257 450.911 197.706C450.875 205.155 456.884 211.224 464.333 211.26C471.782 211.296 477.85 205.287 477.887 197.838Z" fill="#263238"/>
<path d="M485.256 190.188C486.032 190.098 486.817 190.186 487.554 190.446C488.29 190.706 488.957 191.131 489.504 191.688C491.316 193.56 490.932 197.004 489.504 204.888L483.864 205.512L485.256 190.188Z" fill="#263238"/>
<path d="M482.568 205.56C483.396 206.064 484.596 204.456 485.64 203.376C486.684 202.296 490.044 200.844 491.712 204.384C493.38 207.924 490.716 212.784 488.112 213.804C487.198 214.251 486.147 214.328 485.178 214.017C484.209 213.706 483.398 213.032 482.916 212.136L481.86 228.54C481.86 228.54 475.86 237.084 467.808 238.14C465.972 234.156 464.328 231.3 466.992 228.036V223.02C464.96 223.375 462.892 223.475 460.836 223.32C459.197 222.947 457.698 222.116 456.513 220.924C455.327 219.732 454.504 218.229 454.14 216.588C452.334 209.339 452.137 201.781 453.564 194.448C455.76 181.956 469.776 181.788 477.672 186.792C485.568 191.796 482.568 205.56 482.568 205.56Z" fill="#FFA8A7"/>
<path d="M482.568 206.964C482.988 206.964 484.596 204.324 485.64 203.364C487.08 202.068 485.256 190.164 485.256 190.164C484.56 180.42 470.196 179.628 466.224 179.364C457.128 178.68 450.924 183.696 453.372 190.056C455.016 192.936 458.364 193.74 461.52 194.136C466.872 194.808 475.992 191.964 477.12 191.808C478.68 191.604 479.004 193.116 479.832 197.22C480.564 200.82 481.2 206.928 482.568 206.964Z" fill="#263238"/>
<path d="M485.256 191.112L490.32 188.4C490.159 188.059 489.931 187.754 489.649 187.503C489.367 187.252 489.037 187.061 488.68 186.941C488.322 186.821 487.944 186.775 487.568 186.805C487.192 186.835 486.826 186.941 486.492 187.116C485.808 187.492 485.298 188.119 485.067 188.864C484.837 189.61 484.904 190.416 485.256 191.112V191.112Z" fill="#263238"/>
<path d="M467.064 223.032C467.064 223.032 474.564 221.556 477.192 220.164C478.727 219.354 479.982 218.099 480.792 216.564C480.423 218.097 479.745 219.538 478.8 220.8C476.88 223.2 467.1 225.024 467.1 225.024L467.064 223.032Z" fill="#F28F8F"/>
<path d="M466.884 205.2C466.879 205.401 466.914 205.601 466.987 205.789C467.06 205.976 467.17 206.147 467.309 206.293C467.448 206.438 467.615 206.554 467.8 206.634C467.984 206.714 468.183 206.757 468.384 206.76C468.79 206.751 469.177 206.582 469.46 206.29C469.742 205.998 469.899 205.606 469.896 205.2C469.915 204.991 469.89 204.78 469.822 204.581C469.755 204.383 469.647 204.2 469.506 204.045C469.364 203.89 469.192 203.766 469 203.682C468.807 203.597 468.6 203.553 468.39 203.553C468.18 203.553 467.972 203.597 467.78 203.682C467.588 203.766 467.416 203.89 467.274 204.045C467.133 204.2 467.025 204.383 466.958 204.581C466.89 204.78 466.865 204.991 466.884 205.2V205.2Z" fill="#263238"/>
<path d="M468.492 199.56L471.708 201.348C471.938 200.908 471.99 200.397 471.851 199.92C471.712 199.444 471.394 199.039 470.964 198.792C470.752 198.676 470.519 198.604 470.279 198.58C470.038 198.556 469.796 198.58 469.565 198.652C469.334 198.723 469.12 198.841 468.936 198.997C468.752 199.153 468.601 199.344 468.492 199.56V199.56Z" fill="#263238"/>
<path d="M467.772 215.28L464.4 216.552C464.466 216.787 464.58 217.006 464.735 217.196C464.889 217.385 465.081 217.541 465.298 217.654C465.515 217.766 465.753 217.833 465.997 217.85C466.241 217.867 466.485 217.833 466.716 217.752C467.178 217.558 467.547 217.191 467.744 216.73C467.941 216.268 467.951 215.749 467.772 215.28V215.28Z" fill="#F28F8F"/>
<path d="M454.284 200.772L457.224 198.516C457.087 198.318 456.911 198.15 456.707 198.022C456.503 197.894 456.275 197.809 456.037 197.772C455.799 197.735 455.556 197.747 455.323 197.807C455.089 197.866 454.871 197.973 454.68 198.12C454.286 198.427 454.025 198.873 453.951 199.367C453.878 199.861 453.997 200.364 454.284 200.772V200.772Z" fill="#263238"/>
<path d="M455.148 204.372C455.148 204.561 455.185 204.748 455.258 204.923C455.33 205.098 455.436 205.257 455.57 205.39C455.703 205.524 455.862 205.63 456.037 205.702C456.212 205.775 456.399 205.812 456.588 205.812C456.777 205.812 456.964 205.775 457.139 205.702C457.314 205.63 457.473 205.524 457.606 205.39C457.74 205.257 457.846 205.098 457.918 204.923C457.991 204.748 458.028 204.561 458.028 204.372C458.034 204.179 458.002 203.987 457.934 203.807C457.865 203.627 457.761 203.462 457.628 203.323C457.495 203.183 457.336 203.071 457.16 202.994C456.983 202.917 456.793 202.875 456.6 202.872C456.21 202.882 455.838 203.044 455.567 203.325C455.295 203.605 455.145 203.982 455.148 204.372V204.372Z" fill="#263238"/>
<path d="M461.472 204.6L462.852 213.552L457.908 212.952L461.472 204.6Z" fill="#F28F8F"/>
<path d="M464.712 236.64C464.604 238.031 464.624 239.429 464.772 240.816C464.919 242.062 465.395 243.247 466.152 244.248C466.64 244.562 467.194 244.759 467.771 244.821C468.348 244.884 468.932 244.811 469.476 244.608C470.384 243.708 471.086 242.622 471.534 241.425C471.981 240.227 472.164 238.947 472.068 237.672L467.844 238.152L464.712 236.64Z" fill="#CA2D2D"/>
<path d="M466.152 244.248C466.152 244.248 461.16 262.728 460.968 264.96C460.776 267.192 465.12 279.096 467.028 279.156C468.936 279.216 472.416 271.116 472.476 269.076C472.536 267.036 469.476 244.608 469.476 244.608L466.152 244.248Z" fill="#CA2D2D"/>
<path opacity="0.1" d="M469.476 244.608C468.939 244.847 468.349 244.94 467.765 244.876C467.181 244.813 466.625 244.596 466.152 244.248L466.056 244.572C466.537 244.974 467.108 245.252 467.721 245.384C468.333 245.516 468.968 245.497 469.572 245.328L469.476 244.608Z" fill="black"/>
<path d="M467.844 238.152L481.956 227.508L482.16 224.352C482.16 224.352 485.22 225.552 485.964 231.312C483.715 236.299 479.868 240.395 475.032 242.952L472.068 237.672L467.844 238.152Z" fill="#E0E0E0"/>
<path d="M467.04 225.684C465.194 225.969 463.534 226.969 462.42 228.468C461.004 230.868 461.328 239.712 461.328 239.712L464.712 236.64L467.844 238.152C467.544 235.188 467.028 230.184 467.028 230.184L467.04 225.684Z" fill="#E0E0E0"/>
<path d="M479.544 195.144C479.544 195.144 469.296 202.872 457.224 200.388C444.432 197.748 453.12 190.056 453.12 190.056L479.544 195.144Z" fill="#37474F"/>
<path d="M447.036 180.648C450.468 176.376 464.844 171.048 477.132 173.94C489.42 176.832 492.732 183.252 492.732 183.252C487.792 186.296 482.037 187.75 476.244 187.416C466.452 186.876 447.036 180.648 447.036 180.648Z" fill="#CA2D2D"/>
<path opacity="0.4" d="M447.036 180.648C450.468 176.376 464.844 171.048 477.132 173.94C489.42 176.832 492.732 183.252 492.732 183.252C487.792 186.296 482.037 187.75 476.244 187.416C466.452 186.876 447.036 180.648 447.036 180.648Z" fill="white"/>
<path d="M491.148 187.116C491.857 185.914 492.379 184.611 492.696 183.252C492.696 183.252 491.244 184.656 482.916 183.384C475.02 182.184 466.8 177.588 458.028 177.216C449.256 176.844 447.036 180.648 447.036 180.648C448.155 183.575 449.952 186.195 452.28 188.292C452.28 188.292 456.18 193.572 466.452 193.836C476.724 194.1 491.148 187.116 491.148 187.116Z" fill="#CA2D2D"/>
<path d="M462.444 185.232C462.444 187.632 460.812 189.3 458.844 188.988C457.777 188.694 456.841 188.048 456.187 187.155C455.534 186.262 455.201 185.174 455.244 184.068C455.244 181.668 456.876 180 458.844 180.324C459.91 180.616 460.846 181.26 461.499 182.151C462.153 183.042 462.486 184.128 462.444 185.232V185.232Z" fill="#F5F5F5"/>
<path d="M491.148 187.116L491.04 188.76C490.991 189.308 490.818 189.837 490.533 190.307C490.248 190.777 489.859 191.175 489.396 191.472C482.436 195.156 474.562 196.756 466.716 196.08C459.42 195.54 455.856 194.112 454.296 192.924C453.753 192.608 453.296 192.164 452.966 191.631C452.635 191.097 452.441 190.49 452.4 189.864L452.28 188.292C452.28 188.292 455.124 191.004 467.076 192C479.028 192.996 491.148 187.116 491.148 187.116Z" fill="#455A64"/>
<path d="M462.504 228.324C462.504 228.324 456.756 232.608 460.248 250.668C464.628 273.216 477.804 296.796 477.804 296.796C477.804 296.796 472.044 299.388 471.156 298.476C470.268 297.564 462.144 279.12 458.724 268.56C455.304 258 450.324 240.96 456.732 229.908C456.732 229.908 459.744 227.532 462.504 228.324Z" fill="#CA2D2D"/>
<path opacity="0.1" d="M462.504 228.324C462.504 228.324 456.756 232.608 460.248 250.668C464.628 273.216 477.804 296.796 477.804 296.796C477.804 296.796 472.044 299.388 471.156 298.476C470.268 297.564 462.144 279.12 458.724 268.56C455.304 258 450.324 240.96 456.732 229.908C456.732 229.908 459.744 227.532 462.504 228.324Z" fill="black"/>
<path d="M506.592 287.064C506.592 287.064 472.524 296.208 471.3 298.032C470.076 299.856 472.596 326.316 476.82 329.532C479.63 331.39 482.887 332.459 486.252 332.628C498.96 332.46 517.872 325.716 518.448 320.904C520.332 305.088 506.592 287.064 506.592 287.064Z" fill="#CA2D2D"/>
<path opacity="0.1" d="M506.592 287.064C506.592 287.064 472.524 296.208 471.3 298.032C470.076 299.856 472.596 326.316 476.82 329.532C479.63 331.39 482.887 332.459 486.252 332.628C498.96 332.46 517.872 325.716 518.448 320.904C520.332 305.088 506.592 287.064 506.592 287.064Z" fill="black"/>
<path d="M506.592 287.064C510.072 288.012 515.628 298.464 515.64 300.672C515.64 305.364 510.288 310.464 494.148 313.872C482.664 316.272 478.86 314.304 477.264 310.92C474.864 305.808 473.412 299.568 471.264 298.032C473.64 295.2 503.376 286.188 506.592 287.064Z" fill="#CA2D2D"/>
<path d="M516.612 278.088C516.06 269.58 512.412 259.032 510.3 253.812L496.212 259.116C496.212 259.116 501.408 271.728 502.632 277.476C502.632 284.088 499.908 295.56 497.256 301.632C496.775 302.698 495.922 303.551 494.856 304.032C492 305.352 490.716 306.912 488.46 308.748C486.684 310.188 485.304 310.428 485.448 310.968C485.674 311.581 486.124 312.086 486.708 312.38C487.291 312.674 487.965 312.735 488.592 312.552C489.986 312.195 491.331 311.671 492.6 310.992C491.377 313.273 489.793 315.339 487.908 317.112C483.624 321.192 483.108 323.976 490.584 324.996C495.276 325.632 499.404 323.22 504.252 313.32C505.656 310.464 508.284 305.592 509.712 301.836C514.44 289.452 516.216 283.608 516.612 278.088Z" fill="#FFA8A7"/>
<path d="M494.064 231.804C499.776 232.08 503.58 234.396 507.348 241.884C511.116 249.372 515.412 264.684 515.412 264.684C510.839 268.572 504.955 270.568 498.96 270.264C498.96 270.264 491.628 250.68 490.38 246.036C489.036 240.948 490.248 233.532 494.064 231.804Z" fill="#F5F5F5"/>
</svg>
